<?xml version="1.0" encoding="UTF-8" standalone="no"?>
<svg width="430px" height="453px" viewBox="0 0 430 453" version="1.1" xmlns="http://www.w3.org/2000/svg" xmlns:xlink="http://www.w3.org/1999/xlink" xmlns:sketch="http://www.bohemiancoding.com/sketch/ns">
    <!-- Generator: Sketch 3.3.2 (12043) - http://www.bohemiancoding.com/sketch -->
    <title>knows-what</title>
    <desc>Created with Sketch.</desc>
    <defs></defs>
    <g id="Page-7" stroke="none" stroke-width="1" fill="none" fill-rule="evenodd" sketch:type="MSPage">
        <g id="knows-what" sketch:type="MSLayerGroup">
            <g id="Group" transform="translate(77.632743, 159.264706)">
                <g id="similarity-copy" transform="translate(43.296460, 0.235294)">
                    <g id="Imported-Layers" transform="translate(0.622873, 0.841683)"></g>
                </g>
                <g id="geography" transform="translate(0.044248, 182.941176)">
                    <g id="Imported-Layers-3" transform="translate(0.622873, 0.863867)"></g>
                </g>
                <g id="personal" transform="translate(105.398230, 169.823529)"></g>
                <g id="academic" transform="translate(234.991150, 186.823529)">
                    <g id="Imported-Layers" transform="translate(0.886998, 0.626519)"></g>
                </g>
            </g>
            <g id="Group">
                <rect id="Rectangle-8-Copy" stroke="#FFFFFF" fill="#FFFFFF" sketch:type="MSShapeGroup" x="0" y="0" width="430" height="453"></rect>
                <text id="IDEAL-PERSONALIZATIO" sketch:type="MSTextLayer" font-family="Lato" font-size="26.3157895" font-weight="bold" sketch:alignment="middle" fill="#404040">
                    <tspan x="53.7171053" y="80.2647059">IDEAL PERSONALIZATION</tspan>
                    <tspan x="49.7293233" y="112.264706" font-size="22.556391" font-weight="normal">based on historical campaign data</tspan>
                </text>
                <ellipse id="Oval-74" fill="#FEB912" sketch:type="MSShapeGroup" cx="139.778761" cy="180.239103" rx="33.8495575" ry="33.7391033"></ellipse>
                <path d="M136.609054,169.964799 C139.952349,169.964799 142.911436,172.906 142.911436,174.679885 L142.911436,179.771212 C142.911436,181.660864 142.349013,185.267724 140.3516,186.904136 C139.740572,187.405792 139.411913,188.194454 139.475562,189.002409 C139.541525,189.810365 139.991695,190.529084 140.674472,190.918591 L147.95936,195.123579 C148.024166,195.159756 148.105174,195.199551 148.173451,195.230905 C148.343567,195.305671 148.554187,195.432291 148.708101,195.542028 L148.708101,197.724715 L124.404697,197.724715 L124.404697,195.568558 C124.570184,195.441938 124.802791,195.296024 124.985636,195.209199 C125.040027,195.183875 125.094418,195.156139 125.145337,195.125991 L132.620014,190.901709 C133.301634,190.517025 133.754118,189.801924 133.823553,188.997586 C133.891831,188.193248 133.570116,187.404586 132.966031,186.899312 C131.025323,185.278577 130.193261,181.687394 130.193261,179.771212 L130.193261,174.679885 C130.193261,172.947 133.327093,169.964799 136.609054,169.964799 M136.609054,167.551785 C132.291355,167.551785 127.878761,171.308177 127.878761,174.679885 L127.878761,179.771212 C127.878761,181.996106 128.781416,186.495334 131.517155,188.781729 L124.042478,193.006011 C124.042478,193.006011 122.090197,193.912851 122.090197,195.042784 L122.090197,198.099751 C122.090197,199.223654 122.966236,200.136523 124.042478,200.136523 L149.068005,200.136523 C150.146562,200.136523 151.0226,199.223654 151.0226,198.099751 L151.0226,195.042784 C151.0226,193.844115 149.068005,193.006011 149.068005,193.006011 L141.781961,188.801023 C144.489925,186.580954 145.225936,182.217992 145.225936,179.771212 L145.225936,174.679885 C145.225936,171.308177 140.926753,167.551785 136.609054,167.551785" id="Fill-1" fill="#FFFFFF" sketch:type="MSShapeGroup"></path>
                <path d="M157.167597,187.000608 L149.773928,182.79562 C152.481892,180.575551 153.325528,176.212589 153.325528,173.767015 L153.325528,168.674482 C153.325528,165.302773 148.91872,161.510205 144.599864,161.510205 C141.793533,161.510205 138.924711,163.099586 137.253642,165.136359 C138.207216,165.196654 139.256841,165.19786 140.164125,165.499336 C141.383867,164.510494 142.926481,163.922013 144.599864,163.922013 C147.943159,163.922013 151.011028,166.901802 151.011028,168.674482 L151.011028,173.767015 C151.011028,175.655461 150.339823,179.262321 148.34241,180.899939 C147.731382,181.401595 147.402723,182.18905 147.467529,182.997006 C147.532335,183.804962 147.982505,184.524887 148.665283,184.913188 L156.058952,189.118176 C156.123758,189.155559 156.204765,189.195354 156.273043,189.225502 C156.443159,189.301474 156.653778,189.426888 156.807692,189.537831 L156.807692,191.681929 L152.135875,191.681929 C152.84064,192.236645 153.054731,193.03013 153.327842,194.093737 L157.167597,194.093737 C158.246154,194.093737 159.122192,193.180868 159.122192,192.056965 L159.122192,189.038587 C159.122192,187.839918 157.167597,187.000608 157.167597,187.000608" id="Fill-2" fill="#FFFFFF" sketch:type="MSShapeGroup"></path>
                <text id="Geographic-" sketch:type="MSTextLayer" font-family="Lato" font-size="26.3157895" font-weight="normal" fill="#FEB912">
                    <tspan x="184.911504" y="171.974824">Geographic </tspan>
                    <tspan x="184.911504" y="203.974824">similarity</tspan>
                </text>
                <path d="M48.5730088,265.088235 L381.448225,265.088235" id="Line" stroke="#979797" stroke-linecap="square" opacity="0.4" sketch:type="MSShapeGroup"></path>
                <ellipse id="Oval-70" fill="#00B4FF" sketch:type="MSShapeGroup" cx="96.5265487" cy="361.577594" rx="33.8495575" ry="34.3717115"></ellipse>
                <path d="M96.0184108,379.00974 C86.2533263,379.00974 78.3075964,370.958267 78.3075964,361.061618 C78.3075964,351.164968 86.2533263,343.113495 96.0184108,343.113495 C105.783495,343.113495 113.728121,351.164968 113.728121,361.061618 C113.728121,370.958267 105.783495,379.00974 96.0184108,379.00974 L96.0184108,379.00974 Z M96.0184108,345.347897 C87.4684386,345.347897 80.5135776,352.396581 80.5135776,361.061618 C80.5135776,369.725532 87.4684386,376.774217 96.0184108,376.774217 C104.568383,376.774217 111.523244,369.725532 111.523244,361.061618 C111.523244,352.396581 104.568383,345.347897 96.0184108,345.347897 L96.0184108,345.347897 Z" id="Fill-1" fill="#FFFFFF" sketch:type="MSShapeGroup"></path>
                <path d="M96.5011418,379.00974 C91.2264497,379.00974 85.9893156,371.125398 85.9893156,361.061618 C85.9893156,350.996715 91.2264497,343.113495 96.5011418,343.113495 C101.775834,343.113495 105.942565,350.996715 105.942565,361.061618 C105.942565,371.125398 101.775834,379.00974 96.5011418,379.00974 L96.5011418,379.00974 Z M96.0371898,345.347897 C91.8815057,345.347897 88.1986107,352.543522 88.1986107,361.061618 C88.1986107,369.578591 91.8815057,376.774217 96.0371898,376.774217 C100.192874,376.774217 103.737688,369.578591 103.737688,361.061618 C103.737688,352.543522 100.192874,345.347897 96.0371898,345.347897 L96.0371898,345.347897 Z" id="Fill-2" fill="#FFFFFF" sketch:type="MSShapeGroup"></path>
                <path d="M96.0184108,357.680851 C85.7993162,357.680851 81.3045052,356.359503 81.1178198,356.303419 L81.7452596,354.160996 C81.7883409,354.174456 86.1793149,355.44645 96.0184108,355.44645 C106.115994,355.44645 109.966796,354.104911 110.005458,354.091451 L110.741154,356.196859 C110.573247,356.258551 106.491574,357.680851 96.0184108,357.680851" id="Fill-3" fill="#FFFFFF" sketch:type="MSShapeGroup"></path>
                <path d="M110.005458,369.043546 C109.969005,369.031208 106.026518,367.688548 96.0184108,367.688548 C86.1793149,367.688548 81.7883409,368.960541 81.7452596,368.97288 L81.1178198,366.831578 C81.3045052,366.774372 85.7993162,365.453024 96.0184108,365.453024 C106.491574,365.453024 110.573247,366.876446 110.741154,366.937017 L110.005458,369.043546" id="Fill-4" fill="#FFFFFF" sketch:type="MSShapeGroup"></path>
                <path d="M94.8806238,344.230696 L97.0855003,344.230696 L97.0855003,377.892539 L94.8806238,377.892539 L94.8806238,344.230696 Z" id="Fill-5" fill="#FFFFFF" sketch:type="MSShapeGroup"></path>
                <ellipse id="Oval-71" fill="#56CEB5" sketch:type="MSShapeGroup" cx="215.713305" cy="362.274715" rx="32.6823314" ry="33.1864801"></ellipse>
                <path d="M208.17039,348.38745 C209.265388,348.38745 211.24644,348.919568 214.458806,352.131566 L216.051022,353.723382 L217.619774,352.106605 C219.849994,349.805676 222.223234,348.376104 223.813216,348.376104 C225.9574,348.376104 227.647943,349.120389 229.296026,350.790491 C230.848018,352.364155 231.702786,354.455186 231.702786,356.680099 C231.705021,358.906146 230.849135,360.999447 229.280383,362.588994 C229.151888,362.72174 222.402009,370.115801 216.746011,376.314015 C216.480083,376.571564 216.175048,376.61014 216.01415,376.61014 C215.85437,376.61014 215.553804,376.572699 215.287876,376.323091 C213.91019,374.766447 203.921129,363.487582 202.75909,362.309887 C201.204864,360.73509 200.348978,358.641789 200.348978,356.415742 C200.350095,354.190829 201.205981,352.099797 202.760208,350.525 C204.271975,348.991047 206.041849,348.38745 208.17039,348.38745 M208.17039,346.118289 C205.498819,346.118289 203.142339,346.929514 201.181399,348.919568 C197.093035,353.059652 197.093035,359.772965 201.181399,363.915319 C202.347907,365.099821 213.676665,377.89562 213.676665,377.89562 C214.321373,378.552542 215.169437,378.879301 216.01415,378.879301 C216.858862,378.879301 217.704692,378.552542 218.3494,377.89562 C218.3494,377.89562 230.740753,364.31696 230.873717,364.180811 C234.960963,360.037323 234.960963,353.32401 230.873717,349.183925 C228.844619,347.126931 226.577526,346.106943 223.813216,346.106943 C221.17293,346.106943 218.226492,348.245627 216.027558,350.514788 C213.757114,348.245627 210.902298,346.118289 208.17039,346.118289" id="Imported-Layers" fill="#FFFFFF" sketch:type="MSShapeGroup"></path>
                <ellipse id="Oval-72" fill="#FF8E0E" sketch:type="MSShapeGroup" cx="333.473451" cy="363.459947" rx="33.8495575" ry="34.3717115"></ellipse>
                <path d="M333.386342,369.923591 C333.189136,369.923591 332.99072,369.872068 332.811662,369.767732 L314.742521,359.527403 C314.352949,359.303275 314.108559,358.873052 314.106139,358.40161 C314.103719,357.931457 314.34327,357.49737 314.728003,357.26809 L332.83102,346.88607 C333.197605,346.670959 333.637991,346.669671 334.002157,346.882206 L352.204381,357.251345 C352.595164,357.479337 352.835924,357.918576 352.831085,358.392594 C352.826245,358.8679 352.577016,359.301987 352.181394,359.520962 L333.946503,369.775461 C333.771075,369.873356 333.578708,369.923591 333.386342,369.923591 L333.386342,369.923591 Z M317.833693,358.378425 L333.396021,367.176092 L349.059976,358.352663 L333.422638,349.482863 L317.833693,358.378425 L317.833693,358.378425 Z" id="Fill-1" fill="#FFFFFF" sketch:type="MSShapeGroup"></path>
                <path d="M333.40449,378.947962 C325.71709,378.947962 323.203017,376.777527 322.940479,376.528926 C322.68278,376.285476 322.535179,375.935115 322.535179,375.566721 L322.535179,364.668177 C322.535179,363.955862 323.075982,363.378797 323.745031,363.378797 C324.414079,363.378797 324.954883,363.955862 324.954883,364.668177 L324.954883,374.862135 C325.844124,375.35161 328.304963,376.371779 333.40449,376.371779 C338.47135,376.371779 340.987843,375.413438 341.938786,374.92654 L341.938786,364.485268 C341.938786,363.772953 342.47959,363.197176 343.148639,363.197176 C343.817687,363.197176 344.358491,363.772953 344.358491,364.485268 L344.358491,375.664616 C344.358491,376.052332 344.195161,376.41815 343.914475,376.662887 C343.644678,376.89732 341.064063,378.947962 333.40449,378.947962" id="Fill-2" fill="#FFFFFF" sketch:type="MSShapeGroup"></path>
                <path d="M350.362987,371.999995 C349.693938,371.999995 349.153134,371.424218 349.153134,370.711903 L349.153134,359.776004 C349.153134,359.06369 349.693938,358.487913 350.362987,358.487913 C351.032035,358.487913 351.572839,359.06369 351.572839,359.776004 L351.572839,370.711903 C351.572839,371.424218 351.032035,371.999995 350.362987,371.999995" id="Fill-3" fill="#FFFFFF" sketch:type="MSShapeGroup"></path>
                <path d="M350.369036,369.900406 C349.032149,369.900406 347.949332,371.053248 347.949332,372.476589 C347.949332,373.89993 349.032149,375.052773 350.369036,375.052773 C351.705922,375.052773 352.78874,373.89993 352.78874,372.476589 C352.78874,371.053248 351.705922,369.900406 350.369036,369.900406" id="Fill-4" fill="#FFFFFF" sketch:type="MSShapeGroup"></path>
                <text id="OTHER-OPTIONS" opacity="0.5" sketch:type="MSTextLayer" font-family="Lato" font-size="22.556391" font-weight="normal" fill="#404040">
                    <tspan x="49.5132743" y="302.147059">OTHER OPTIONS</tspan>
                </text>
            </g>
        </g>
    </g>
</svg>