<?xml version="1.0" encoding="UTF-8" standalone="no"?>
<svg width="362px" height="592px" viewBox="0 0 362 592" version="1.1" xmlns="http://www.w3.org/2000/svg" xmlns:xlink="http://www.w3.org/1999/xlink" xmlns:sketch="http://www.bohemiancoding.com/sketch/ns">
    <!-- Generator: Sketch 3.3.2 (12043) - http://www.bohemiancoding.com/sketch -->
    <title>loca_ca</title>
    <desc>Created with Sketch.</desc>
    <defs></defs>
    <g id="Page-1" stroke="none" stroke-width="1" fill="none" fill-rule="evenodd" sketch:type="MSPage">
        <g id="loca_ca" sketch:type="MSArtboardGroup">
            <path d="M170.900673,526.040803 L169.84645,523.731646 L168.297111,521.871385 L167.674008,520.867073 L167.343932,519.417667 L167.178893,519.04105 L167.013855,518.523677 L166.882498,517.926416 L166.882498,517.44328 L166.784823,516.994383 L166.387384,516.773739 L165.892269,516.587332 L165.498198,516.252562 L165.235484,517.405238 L165.629555,518.782364 L166.12467,520.125251 L166.485059,522.130072 L167.572964,524.591398 L167.970403,526.489701 L168.660869,527.414125 L169.48606,528.197793 L170.142845,528.64669 L170.506602,528.760816 L170.769316,528.684732 L171.03203,528.57441 L171.298112,528.536368 L172.318654,528.760816 L172.780088,528.760816 L173.241521,528.57441 L171.759545,526.748387 L170.900673,526.040803 L170.900673,526.040803 Z M135.050336,498.760787 L133.962431,498.015161 L133.831074,497.794517 L133.305646,497.231493 L132.908208,497.497788 L132.446774,497.60811 L131.988709,497.53583 L131.523908,497.197255 L131.722627,498.722745 L132.446774,499.951506 L133.534679,500.845496 L134.854985,501.362869 L136.138241,501.142225 L135.973203,500.065632 L135.050336,498.760787 L135.050336,498.760787 Z M176.535548,499.616735 L173.60191,497.646152 L173.00912,497.345619 L170.836679,495.184826 L169.913812,494.739733 L169.024627,494.701691 L168.627188,495.336995 L168.957264,496.044578 L169.715093,496.748358 L170.604278,497.269535 L171.298112,497.53583 L172.220979,497.980923 L172.450011,498.760787 L172.220979,500.845496 L172.25466,501.998173 L172.450011,502.930205 L172.877763,503.599747 L173.669273,503.934518 L174.033031,503.896475 L175.019892,503.599747 L175.417331,503.565509 L175.878764,503.786153 L176.996982,504.900788 L177.687448,505.159474 L178.313919,505.01111 L178.580001,504.345373 L176.966669,500.320514 L176.535548,499.616735 L176.535548,499.616735 Z M120.355201,458.48938 L120.092487,457.298662 L120.355201,456.035663 L119.698416,456.446518 L119.038263,456.594882 L116.828772,456.298153 L116.367339,456.408476 L115.939587,456.594882 L115.346797,456.705204 L114.555287,456.518798 L113.106993,455.887298 L112.349164,456.073705 L112.941954,456.929653 L113.568426,458.192652 L114.093854,459.497497 L114.225211,460.463767 L114.491292,461.022987 L115.148077,461.802851 L115.973268,462.396308 L116.630053,462.396308 L117.061173,462.137621 L117.421562,462.175664 L117.819001,462.36207 L118.411792,462.582714 L118.805862,462.544672 L120.947991,461.46808 L121.473418,461.022987 L121.870857,460.315403 L122.133571,459.162726 L121.045666,459.235006 L120.355201,458.48938 L120.355201,458.48938 Z M110.436068,454.061276 L110.139673,453.726505 L109.779284,453.429776 L109.381845,453.167285 L109.183125,452.760235 L109.021455,452.277099 L108.691379,451.832006 L108.394984,452.722192 L107.866188,452.946641 L106.74797,452.798277 L105.990142,453.24337 L105.791422,453.726505 L106.087817,453.912911 L106.646926,453.467818 L107.603474,454.20964 L108.526341,454.620495 L110.766145,455.03135 L110.634788,454.510173 L110.436068,454.061276 L110.436068,454.061276 Z M137.785255,459.0486 L137.522541,458.865998 L137.094789,458.713829 L136.501998,458.97632 L134.885298,460.056717 L134.588903,460.132801 L134.161151,460.132801 L131.261194,457.857881 L130.537047,457.633432 L128.987708,457.412788 L128.361237,457.150297 L126.616547,455.552527 L125.626318,455.290037 L125.329923,455.290037 L125.067209,455.400359 L124.639457,455.700892 L124.376743,455.963383 L124.572095,456.184027 L125.164885,456.446518 L125.562324,456.929653 L125.889032,457.52311 L126.155114,458.22689 L125.494961,459.421413 L126.222477,460.577894 L127.63709,461.506122 L128.890033,461.951215 L137.192464,461.726766 L138.115331,461.430038 L138.576764,460.912665 L138.708121,460.205081 L138.610445,460.094759 L137.785255,459.0486 L137.785255,459.0486 Z M337.269275,480.485344 L337.336638,479.815803 L336.279046,478.777252 L335.918657,478.179991 L335.58858,477.807178 L334.99579,477.324043 L332.260872,474.383385 L331.799438,473.565479 L331.6344,473.379073 L330.977615,472.709531 L330.846258,472.519321 L330.580176,472.11227 L330.44882,471.963905 L330.317463,471.887821 L330.152424,471.815541 L329.65731,471.739457 L329.45859,471.629135 L329.29692,471.370448 L329.162195,471.035677 L329.131882,470.400374 L329.131882,469.951476 L329.162195,469.917238 L329.428277,469.171613 L329.690991,468.505875 L329.394596,467.946656 L329.327233,467.904809 L329.263239,466.866259 L328.933163,466.30704 L328.505411,465.823904 L328.141653,464.929914 L328.141653,464.595143 L328.340372,463.442467 L328.340372,463.031612 L328.209016,462.772925 L328.077659,462.544672 L326.363282,456.705204 L325.406734,456.370433 L324.716268,455.738934 L324.352511,454.734622 L324.453555,453.31565 L324.386192,452.687955 L324.187473,451.870049 L323.857396,451.120618 L323.362282,450.75161 L322.836854,450.454881 L322.641503,449.819577 L322.93453,443.942067 L322.968211,443.569254 L317.070622,435.492909 L311.237027,427.378521 L305.174399,418.929362 L299.542892,410.891058 L294.564801,403.742941 L289.590078,396.56439 L284.645669,389.382034 L279.738309,382.233917 L274.827581,375.047757 L269.92022,367.831163 L265.039805,360.648808 L260.19644,353.466452 L254.595245,345.534667 L243.524214,329.682508 L238.054377,321.716485 L232.550858,313.788503 L227.081021,305.826284 L221.644865,297.860261 L216.24239,289.894237 L209.256896,280.330444 L202.301715,270.76665 L195.383584,261.164815 L188.495765,251.559175 L181.644996,241.961144 L174.821172,232.325071 L168.034398,222.677585 L161.281304,213.041511 L161.37898,212.375774 L161.840413,209.655761 L163.288707,200.685425 L164.706689,191.756936 L171.954897,147.091663 L173.372878,138.163173 L176.272835,120.37467 L177.687448,111.438572 L180.590773,93.6500682 L182.005386,84.7938587 L183.457048,75.899607 L184.871661,67.0395933 L176.205472,65.2135707 L167.539283,63.3951566 L158.906775,61.5653298 L150.274267,59.6708313 L141.608078,57.8105708 L132.97557,55.874226 L124.343062,53.9416855 L115.707186,51.9634943 L107.078046,49.9929116 L98.4455384,47.9842868 L89.8096624,45.9718577 L81.2108357,43.9251908 L72.5749597,41.8404816 L63.9761331,39.7215346 L55.3739383,37.5987833 L46.7751117,35.4798363 L46.6100735,35.403752 L45.6872068,35.1793034 L45.8859263,36.1493779 L45.9196076,36.666751 L45.8859263,37.2335788 L44.8620159,41.6198372 L44.4342638,42.3654631 L43.2823646,44.001275 L42.1270973,45.0816717 L42.0631029,45.3784004 L43.0836452,46.1582642 L44.4679451,47.9082025 L45.4884874,49.8483515 L45.3234492,51.2216727 L45.1280979,51.9634943 L45.3234492,53.2302975 L45.4884874,54.4210164 L45.6872068,54.9459979 L45.7545694,55.2427266 L45.4884874,56.5057255 L45.424493,56.9926649 L45.5221687,57.4719958 L45.7208881,57.920893 L45.983602,58.293706 L46.3136783,58.5942388 L45.6872068,59.3360605 L45.5895312,60.8957881 L45.5558499,63.9505718 L45.1920923,65.3657393 L43.9728305,67.9716257 L43.2183702,70.4291477 L41.8307021,73.514365 L40.8775224,75.0398547 L40.1500071,76.7517509 L39.4595412,77.3452082 L39.2271405,78.0908341 L39.0957835,78.9848244 L39.1294648,79.6581702 L38.9341135,80.3277118 L39.6582606,82.484701 L39.7896176,83.6031398 L39.5269037,84.6797323 L36.1318323,91.3827569 L34.1210609,93.6120261 L33.5619519,94.5821006 L34.2524178,94.357652 L34.9799331,93.6500682 L37.0546989,91.082224 L37.2534184,90.9719018 L38.6040371,91.4892748 L38.9981079,91.3827569 L39.2608217,91.7555698 L39.3921786,91.8278499 L38.6377183,92.7941201 L37.9438843,93.0528067 L37.1860559,93.0185688 L36.229508,93.1669331 L35.6367177,93.6500682 L34.417456,95.3619644 L33.9560227,95.6967352 L33.4945894,97.5950379 L33.0365242,98.4471817 L32.3426901,97.8537244 L31.9452512,97.2602671 L32.0126138,97.0738606 L32.3763714,96.1456324 L32.5717227,95.8108616 L31.2884666,97.0358184 L30.4632756,98.078173 L29.7391284,99.4552984 L29.7728097,99.6074669 L29.8368041,99.8623492 L29.8704854,100.090602 L29.7054472,100.128644 L29.5740903,100.128644 L29.4427333,100.238966 L29.3113764,100.387331 L29.1463382,100.908508 L27.8294008,102.578558 L27.4319619,103.213862 L26.8391716,104.442623 L26.2800627,105.671384 L26.0476619,106.451247 L25.7546349,107.124593 L25.2561522,107.870219 L24.8957627,108.573999 L24.8620815,109.24354 L25.1921578,110.396217 L25.5895967,113.561323 L25.5895967,114.824322 L24.7644058,116.985115 L24.6330489,118.137792 L25.0608009,118.807334 L25.488553,119.214384 L29.0789757,124.764732 L30.6956763,126.476628 L31.1907909,127.29073 L32.0799763,129.752056 L32.1136575,130.121065 L31.9789325,131.2357 L32.046295,131.684597 L32.2753276,131.91285 L33.0365242,132.430223 L33.299238,132.688909 L34.1547421,134.104077 L37.4487697,143.146693 L37.482451,144.002641 L37.2197371,146.163434 L37.3510941,147.354153 L37.482451,148.019891 L37.6474892,148.354661 L38.0112468,148.620956 L38.1089225,149.066049 L38.176285,149.591031 L38.2739607,150.108404 L38.3379551,150.92631 L37.5834948,154.315864 L37.9775656,157.366844 L37.7788461,157.777699 L37.1860559,158.11247 L36.6269469,159.07874 L35.8017559,161.125407 L34.8148949,164.397031 L33.9560227,165.998605 L34.2860991,167.896907 L34.0907477,168.752855 L34.3197803,169.16371 L34.4511372,169.905532 L34.5488129,171.286462 L34.5488129,173.591815 L34.6801698,174.710254 L35.1449713,175.269474 L35.7714428,178.917714 L35.7377615,179.435088 L35.3740039,181.070899 L35.3403226,181.557839 L35.4716795,182.638235 L35.4716795,183.159413 L35.0776088,184.346327 L34.6161754,184.909351 L34.0570665,185.240318 L33.430595,185.985944 L33.299238,187.477195 L33.9560227,189.333652 L35.7714428,192.833528 L37.2837315,194.918237 L37.482451,195.515499 L37.6474892,196.295363 L38.2402794,197.223591 L39.3281842,198.566478 L40.1500071,200.015884 L44.3029069,210.100854 L45.2257735,211.516022 L48.91724,214.939814 L49.7087497,216.431066 L50.035458,219.516283 L50.729292,220.672764 L50.2341775,223.092244 L50.5002594,223.948192 L50.5305726,223.613421 L50.7629733,222.605305 L52.4773496,224.617734 L52.9354148,225.549766 L53.0027773,225.956817 L53.0027773,226.923087 L53.0667717,227.371985 L53.794287,228.897474 L54.8485106,232.248987 L55.9027341,234.440214 L56.2664918,235.596695 L56.2664918,236.791218 L55.8353716,235.672779 L55.1112244,234.588578 L54.5184342,233.401663 L54.4510717,232.024538 L54.2220391,231.126744 L52.8040579,228.638788 L52.2449489,227.817078 L52.7400635,230.940337 L52.6087065,232.287029 L50.5642538,236.825456 L49.2473164,238.533548 L48.8835588,239.241131 L49.8064254,239.541664 L50.0691393,239.541664 L50.3655344,239.389496 L50.4328969,239.279173 L50.46321,239.168851 L50.9920059,238.609632 L51.2547197,238.236819 L51.6184774,237.86781 L52.1775864,237.571082 L51.9485538,237.346633 L51.84751,237.122184 L51.6184774,236.380363 L51.9485538,236.338516 L52.2112676,236.190152 L52.4773496,235.969508 L52.7400635,235.634737 L53.100453,237.236311 L53.8919627,238.423225 L55.8690529,240.173164 L56.0340911,240.397612 L56.3978487,240.91879 L56.6605626,241.588331 L56.7582382,242.965457 L57.0883146,243.48283 L57.8461431,244.15998 L58.2099007,244.715395 L58.802691,246.278927 L59.1967617,246.613698 L59.6245138,246.389249 L59.924277,245.757749 L59.924277,244.977886 L61.5039283,247.245197 L62.295438,248.732645 L63.3159803,249.927168 L63.7134192,250.558667 L64.2388469,251.228209 L64.9966754,251.70754 L65.7881851,251.82547 L66.3809753,251.372769 L66.478651,250.520625 L66.2159371,249.740761 L66.0845802,249.109262 L66.6436892,248.622322 L66.8087274,249.444033 L67.2061663,249.851083 L67.5665558,249.664677 L67.6339183,248.884813 L67.3678363,248.101145 L66.478651,246.834342 L66.1148933,246.09252 L66.3809753,246.016436 L66.7413648,245.719707 L66.9737655,245.609385 L66.7110517,245.015928 L66.8424086,244.490946 L67.2701607,244.118133 L68.3243842,243.969769 L68.0616704,243.448592 L67.2701607,242.516559 L67.172485,241.554093 L67.6642315,238.719954 L67.731594,237.418913 L69.0822127,237.681404 L70.0050793,237.643362 L70.796589,237.087946 L71.6891425,235.893423 L74.9158075,239.054725 L75.3772409,240.024799 L75.4446034,240.507935 L75.7409985,240.994874 L76.1990637,241.367687 L77.2566554,241.850822 L78.8699879,243.113821 L79.5638219,243.262185 L80.0252553,243.262185 L80.4833205,243.037737 L81.9349829,242.033424 L82.1976968,241.774738 L82.4300975,241.401925 L82.8241683,240.469892 L82.9892065,240.211206 L83.3832773,239.952519 L84.0771113,239.728071 L84.7675772,239.579706 L85.296373,239.690029 L85.7914876,240.321528 L85.7241251,240.956832 L84.8012585,242.368195 L86.2832341,243.262185 L87.9976104,243.783363 L87.6035396,244.30454 L87.4048202,244.490946 L87.108425,244.639311 L87.5024958,244.901801 L88.0616048,244.977886 L88.7217576,244.939844 L89.2842347,244.829521 L89.4155916,244.30454 L89.8433437,244.30454 L91.0289241,244.829521 L91.4903575,244.901801 L92.8409761,244.901801 L93.6324858,244.601268 L94.5553525,243.783363 L95.9396524,242.071466 L96.1350037,242.147551 L95.7746142,243.224143 L95.3131809,244.080091 L94.6867094,244.715395 L93.9288809,245.12625 L93.531442,245.19853 L93.1373713,245.19853 L92.7096192,245.236572 L92.3458616,245.499063 L92.1841915,245.906114 L92.1505102,246.351207 L92.2481859,246.685978 L92.5108997,246.910426 L94.0939191,246.948468 L94.9831045,246.7963 L95.4108566,246.351207 L95.5422135,245.681665 L95.7106198,245.350699 L96.3000419,244.791479 L96.5661239,244.681157 L96.7614752,244.829521 L96.9601947,245.015928 L97.2229085,245.164292 L97.421628,245.12625 L97.7517044,244.753437 L97.9167426,244.681157 L98.7385654,244.829521 L99.2976744,245.164292 L99.7287946,245.571343 L101.705885,248.363636 L102.264994,248.732645 L102.561389,249.181542 L103.022822,250.113574 L103.352899,251.041802 L103.288904,251.410811 L102.760108,251.00376 L102.167318,250.223896 L101.638522,249.295668 L101.443171,248.546238 L100.816699,248.546238 L100.089184,247.952781 L99.0686418,246.613698 L98.9709661,246.278927 L98.9709661,245.868072 L98.9036036,245.461021 L98.5768954,245.12625 L98.2131377,245.088208 L97.8830613,245.236572 L97.6203475,245.461021 L97.3879467,245.533301 L96.6301183,245.312656 L96.2360475,245.384937 L96.0036468,245.757749 L95.9059711,246.1648 L95.7409329,246.647935 L95.5758947,247.058791 L95.3771753,247.207155 L95.050467,247.169113 L94.6530281,247.279435 L94.3229517,247.503884 L94.1612817,247.804416 L94.3229517,247.952781 L95.2794996,248.546238 L94.5216712,248.812533 L93.797524,248.546238 L92.5108997,247.614206 L88.3950493,246.1648 L86.8457112,245.164292 L82.7231245,243.634998 L81.9013017,243.711082 L80.0892497,244.528988 L79.2337456,244.601268 L78.5735928,244.194218 L77.485688,242.702966 L76.7952221,242.295915 L76.0037124,242.257873 L75.4109221,242.516559 L73.4338319,244.007811 L73.0397612,244.118133 L72.5446466,244.080091 L72.2145702,243.897489 L71.9181751,243.634998 L71.6520931,243.60076 L71.1569785,244.639311 L70.6315508,245.312656 L69.971398,245.795792 L69.3786078,245.795792 L70.0050793,247.694094 L71.2580223,248.732645 L72.2482515,249.927168 L72.1472077,252.342843 L71.355698,254.058544 L71.1266654,255.135136 L71.6891425,255.728594 L72.3796084,256.029126 L74.0266222,257.22365 L74.6194124,257.817107 L73.0700743,258.151878 L73.2687937,258.2622 L73.7302271,258.673055 L73.3664694,259.338792 L73.6325514,259.525199 L74.5857312,259.563241 L74.9494888,259.970292 L75.0808457,260.419189 L75.4109221,262.46966 L75.8723554,268.461297 L76.1350693,269.613974 L76.5628213,270.43188 L77.4216936,270.618286 L77.6170449,270.76665 L77.7484018,271.029141 L77.8831269,271.474234 L77.8831269,271.732921 L77.7820831,272.029649 L77.7180887,272.326378 L77.8157644,272.474742 L78.0784782,272.592673 L78.6072741,273.037766 L78.0144838,273.410579 L77.2566554,273.444817 L76.5325082,273.224172 L75.9060367,272.741037 L75.6096416,272.029649 L75.3772409,271.101421 L75.0808457,270.397642 L74.6194124,270.321557 L74.289336,269.914507 L73.9929409,269.389525 L73.6662327,269.054754 L72.8410417,269.241161 L72.7096848,268.830306 L72.6760035,268.233044 L72.6120091,267.787951 L72.1472077,267.342858 L71.7868181,267.194494 L71.5847306,266.897765 L71.6520931,266.041817 L71.4533736,265.817368 L70.2677931,265.745088 L69.8737224,265.634766 L69.4762834,264.516327 L69.2809321,264.21199 L69.0182183,264.029388 L68.3917468,263.842981 L68.1290329,263.618533 L67.7652752,263.063118 L67.7652752,262.690305 L67.7955884,262.283254 L67.6339183,261.613712 L67.6979127,261.126773 L68.4894224,258.075793 L68.6544606,257.668743 L68.9508557,257.444294 L69.543646,257.333972 L68.984537,257.22365 L68.8498119,256.923117 L68.9508557,256.550304 L68.984537,256.139449 L68.8834932,254.058544 L68.6207793,253.461282 L67.9269453,253.130316 L66.4483378,252.864021 L65.6871413,252.864021 L65.094351,253.164554 L64.1378031,254.94873 L63.9761331,257.109523 L64.0738087,259.338792 L63.8750893,261.240899 L63.4810185,262.096847 L62.6255144,263.397888 L62.2617567,264.516327 L62.0967186,266.749401 L62.4267949,267.266774 L62.854547,267.45318 L63.282299,267.563502 L63.6460567,267.825993 L64.0064462,268.796068 L64.0064462,270.991099 L64.2388469,271.991607 L64.5689233,272.889402 L64.7339615,273.969798 L64.7339615,275.084433 L64.6329177,276.088745 L64.0738087,278.173455 L63.3799747,279.995673 L63.0195852,281.817891 L63.4810185,283.83032 L64.3398907,285.021039 L64.7002802,285.766665 L64.7339615,286.732935 L64.9629941,287.402477 L66.8760899,289.859999 L68.3243842,293.173469 L69.1832565,294.626679 L71.5207362,297.114635 L72.1472077,297.563532 L72.9050361,297.860261 L73.7639083,297.860261 L74.5857312,297.711896 L75.2795652,297.78798 L75.7746798,298.533606 L77.0579359,297.974387 L78.1121595,298.084709 L78.9676636,298.906419 L79.6951789,300.466147 L80.9481219,305.267065 L81.537544,306.796359 L80.2879691,309.657127 L80.550683,309.919618 L80.8470781,310.067982 L81.1771545,310.067982 L81.5072309,309.919618 L81.5712253,310.330473 L81.5712253,310.665244 L81.4735496,310.965777 L81.2748301,311.262505 L80.4833205,310.813608 L79.991574,310.627202 L79.6278164,311.076099 L79.0350261,313.377648 L78.5399115,314.309681 L77.9808026,315.131391 L77.354331,315.800932 L76.5628213,316.059619 L76.0373936,315.576484 L75.6096416,314.830858 L74.9494888,314.385765 L74.3230173,314.644451 L73.6965458,315.317797 L72.743366,317.025889 L73.2687937,317.36066 L73.6662327,317.843795 L74.0266222,318.18237 L74.3230173,318.627463 L74.3566986,319.338851 L74.1242978,319.745902 L73.4338319,319.673622 L73.2014312,320.080673 L73.1711181,320.970859 L73.5988701,323.508269 L73.5988701,325.661454 L73.302475,327.822248 L73.302475,328.233103 L73.4978263,329.754788 L73.4978263,330.348246 L73.4675132,330.724863 L73.4978263,331.021591 L73.6662327,331.546573 L73.9929409,331.953624 L74.3230173,332.250352 L74.5857312,332.623165 L74.5857312,333.326945 L74.6530937,333.848122 L74.9494888,334.44158 L75.3435596,334.894281 L76.3337888,335.487738 L79.2674268,338.801209 L80.0589365,340.29246 L81.2748301,344.089066 L81.537544,345.983564 L81.803626,346.953639 L82.2987406,347.471012 L83.1205634,347.76774 L83.7470349,348.292722 L84.2421495,348.924221 L84.5688577,349.666043 L84.8012585,350.521991 L84.9326154,351.530108 L84.9662967,352.610504 L84.868621,353.763181 L84.8989341,354.763689 L85.296373,355.623442 L86.2832341,357.076651 L86.8760243,358.674421 L87.2734632,359.420047 L88.3950493,360.462401 L88.6240819,361.65312 L88.6240819,363.886194 L89.479586,367.157818 L90.2071013,367.492588 L92.0528346,369.170247 L93.2687282,369.691424 L94.0939191,371.178871 L94.7540719,373.75052 L95.7106198,375.645018 L96.4650801,377.394957 L97.2902711,378.695998 L98.1794564,379.70031 L100.520304,380.670385 L101.342127,381.305688 L101.672203,382.009468 L101.769879,382.789332 L101.870923,384.170261 L102.032593,384.801761 L102.561389,386.030522 L102.726427,386.772343 L102.099956,387.069072 L101.540847,387.034834 L101.375808,386.700063 L101.837242,385.9202 L101.638522,385.547387 L100.122865,388.522282 L99.7624758,390.27222 L99.7287946,391.128168 L99.9578272,391.946074 L100.715656,393.098751 L102.692746,394.551961 L103.484255,395.480189 L103.682975,395.293782 L104.33976,395.18346 L105.131269,395.221502 L105.660065,395.407909 L105.922779,395.742679 L106.451575,396.674712 L106.74797,396.895356 L107.34076,397.306211 L107.569793,397.60294 L107.637155,399.166472 L107.536112,400.91641 L107.108359,402.814713 L106.54925,404.709211 L104.935918,407.577588 L104.605842,408.692223 L104.703517,409.14112 L105.592703,410.445965 L105.825103,410.853016 L105.95646,411.301914 L106.054136,411.747007 L106.054136,412.302422 L105.791422,413.458903 L104.935918,415.284925 L104.605842,416.361518 L104.935918,417.179424 L105.164951,418.145694 L105.296307,419.153811 L104.969599,420.41681 L104.504798,421.234716 L104.077046,421.870019 L103.713288,422.577603 L103.090185,424.065051 L102.628751,424.806872 L102.760108,425.438372 L103.123866,426.001395 L104.013051,426.522573 L105.033594,427.119834 L105.858785,427.268198 L107.010684,428.751842 L107.768512,430.653949 L108.29394,432.734854 L109.843278,433.107667 L113.369706,432.997344 L118.805862,433.739166 L120.520239,434.264148 L121.93822,435.26846 L123.881629,435.047816 L125.858719,436.310814 L129.220109,439.179192 L129.910575,439.179192 L130.769447,438.950939 L131.59127,438.878659 L132.150379,439.289514 L132.547818,439.810691 L133.271965,440.552513 L134.097156,441.184012 L134.723628,441.408461 L135.215374,441.14597 L135.579132,440.738919 L136.006884,440.442191 L137.886298,440.328064 L138.610445,440.776961 L139.499631,440.887284 L139.927383,441.035648 L140.291141,441.332377 L140.981606,442.302451 L143.090054,443.942067 L144.342997,444.645847 L148.000782,449.891857 L148.462215,450.26467 L149.321087,450.416839 L149.715158,450.565203 L150.045235,450.899974 L150.109229,451.345067 L150.045235,451.870049 L150.078916,452.353184 L150.506668,452.760235 L150.240586,453.281412 L150.240586,453.985191 L150.472987,454.734622 L150.7357,455.438401 L150.833376,455.776976 L150.867057,456.408476 L150.93442,456.667162 L151.099458,456.853569 L151.429534,457.001933 L151.624886,457.188339 L152.975504,459.162726 L153.834377,459.946394 L154.986276,460.243123 L154.491161,460.018674 L154.194766,459.832268 L153.932052,459.832268 L153.834377,459.345329 L154.986276,459.87031 L157.687513,462.544672 L161.149947,464.446779 L162.92495,465.005999 L164.245255,465.972269 L164.770683,466.786371 L165.528511,466.489642 L166.289708,466.268997 L171.692183,466.603768 L172.187297,466.752133 L172.517374,467.014623 L172.813769,467.090708 L173.241521,466.976581 L173.834311,466.714091 L174.689815,467.124946 L175.680044,468.171104 L176.633224,469.506383 L177.657135,472.222592 L178.152249,474.683918 L178.643996,476.650697 L178.745039,477.582729 L178.677677,478.328355 L178.414963,479.929929 L178.020892,480.561428 L177.391053,481.120648 L177.098026,481.900512 L177.657135,483.129273 L177.886167,483.353721 L178.249925,483.57817 L178.643996,483.684688 L179.041435,483.540128 L179.435505,483.502086 L179.7319,484.023263 L180.028296,484.654762 L180.358372,484.993337 L180.688448,485.179744 L181.082519,485.476473 L181.479958,485.697117 L181.90771,485.659075 L182.136743,485.362346 L182.234418,484.993337 L182.2681,484.506398 L182.729533,483.095035 L182.995615,482.82874 L183.487361,482.82874 L183.783756,482.75646 L184.113833,482.608095 L184.47759,482.570053 L185.2691,483.502086 L185.86189,483.612408 L186.619719,483.646646 L187.572899,483.909137 L188.19937,484.392272 L192.385951,490.905086 L193.473856,492.286015 L197.461718,495.633723 L198.977375,497.53583 L200.162955,500.02759 L200.853421,500.621047 L202.301715,502.036215 L202.830511,502.667714 L204.608882,505.608372 L207.609882,508.921842 L211.759414,518.078584 L213.07972,523.100146 L213.440109,525.778313 L213.406428,526.714149 L213.638829,527.376082 L213.901543,532.557421 L213.770186,533.337285 L213.275071,534.265513 L212.783325,534.714411 L212.419567,535.197546 L212.321891,536.274138 L213.012357,538.024077 L213.046038,538.769702 L212.847319,539.774015 L212.254529,541.9272 L212.28821,542.452181 L212.517243,543.384214 L212.584605,544.049951 L212.817006,543.646704 L213.244758,542.117411 L213.669142,541.634275 L214.197938,541.451673 L214.460651,541.485911 L215.087123,541.748402 L215.6496,542.265775 L216.44111,542.824994 L216.767818,543.311934 L217.262933,544.388526 L217.62669,545.617287 L217.62669,546.545515 L217.296614,546.918328 L216.835181,546.69388 L216.636461,545.986296 L216.24239,544.947746 L215.976308,543.939629 L215.582238,543.422256 L215.615919,542.74891 L214.955766,542.303817 L214.430338,542.193495 L214.002586,542.67663 L213.638829,543.125527 L214.693052,543.311934 L215.417199,544.12984 L215.878633,545.358601 L216.306385,546.95637 L216.272703,548.223174 L215.976308,549.37585 L216.00999,550.825256 L216.24239,551.239915 L219.007622,551.426322 L221.742541,551.608924 L224.511141,551.833372 L227.27974,552.019779 L230.014659,552.206185 L232.783259,552.392592 L235.551859,552.575194 L238.317091,552.799643 L241.052009,552.986049 L243.820609,553.172456 L246.589209,553.324624 L249.324128,553.507226 L252.092728,553.693633 L254.857959,553.880039 L257.626559,554.028404 L263.130078,554.397412 L265.898678,554.549581 L268.633596,554.697945 L271.402196,554.884352 L274.167428,555.032716 L276.902346,555.18108 L279.670946,555.371291 L282.439546,555.519655 L285.174465,555.66802 L287.943065,555.816384 L290.708296,555.964748 L293.443215,556.113113 L296.211815,556.261477 L298.980415,556.371799 L301.715333,556.516359 L304.483933,556.672332 L305.99959,556.744612 L305.99959,556.820697 L306.228623,556.189197 L307.777961,555.253361 L311.53679,556.70657 L313.150122,556.558206 L313.577875,555.854426 L313.742913,554.956632 L313.806907,554.066446 L314.039308,553.210498 L314.598417,552.613236 L316.114074,551.761092 L316.609188,551.163831 L316.838221,550.121476 L316.609188,546.846048 L316.740545,546.210745 L316.871902,545.765652 L316.939265,545.282516 L316.871902,544.612975 L316.050079,542.786952 L314.861131,541.78264 L311.53679,541.002776 L310.149122,540.146828 L309.259937,538.210483 L309.590013,536.498587 L310.347841,534.714411 L310.809275,532.591659 L310.775593,529.689044 L310.613923,528.981461 L309.623694,527.307607 L309.623694,526.561981 L310.149122,525.219093 L310.644236,524.777804 L310.842956,524.366949 L310.677918,523.80773 L310.445517,523.362637 L310.118809,522.655053 L310.017765,522.057792 L310.415204,521.833343 L312.227256,521.981707 L313.180436,521.799105 L313.907951,521.350208 L315.588646,518.633999 L316.083761,517.481323 L316.511513,517.028621 L317.333335,516.290604 L317.929494,515.6553 L318.091164,515.320529 L318.289883,514.68903 L318.222521,513.570591 L318.323565,512.904853 L318.650273,512.680405 L318.815311,512.455956 L318.916355,511.900541 L319.014031,510.820144 L319.310426,509.625621 L319.80554,508.994122 L320.300655,508.472944 L320.627363,507.807207 L320.330968,506.837133 L320.233292,506.277913 L320.465693,506.057269 L320.627363,505.794778 L320.728407,505.235559 L320.762088,504.642101 L320.661044,504.345373 L320.266974,503.748111 L320.300655,502.51935 L320.432012,501.252547 L320.432012,500.510725 L321.18984,499.989548 L321.516548,499.582497 L321.516548,499.129796 L320.927126,498.053203 L320.694726,497.459746 L320.627363,496.862484 L320.991121,495.785892 L321.651273,495.184826 L323.230925,494.332682 L323.891078,493.735421 L324.584912,493.027837 L325.110339,492.137651 L325.639135,490.052942 L326.130882,489.196994 L326.791034,488.56169 L328.175334,488.303003 L332.260872,485.841677 L332.985019,485.735159 L334.335637,484.209669 L335.719937,483.01895 L336.97288,482.19724 L337.366951,481.565741 L337.269275,480.485344 L337.269275,480.485344 Z M46.8087929,253.427044 L46.6100735,253.647689 L46.6437547,253.796053 L46.6100735,253.872137 L46.6437547,253.796053 L46.6740679,253.834095 L46.6100735,253.910179 L46.8424742,253.461282 L46.8087929,253.499324 L46.8087929,253.427044 L46.8087929,253.427044 Z M67.9606266,249.778803 L67.8966322,249.889126 L67.731594,249.851083 L67.6002371,250.03749 L67.5665558,250.444541 L67.5665558,250.482583 L67.7652752,250.668989 L68.0616704,250.630947 L68.3580655,250.075532 L68.3243842,250.075532 L68.3580655,250.075532 L67.9606266,249.778803 L67.9606266,249.778803 Z M69.543646,252.160241 L69.543646,252.791741 L69.5773272,252.825979 L69.8737224,253.461282 L69.9410849,253.312918 L69.9410849,253.27868 L69.7423654,253.130316 L69.9410849,252.308605 L69.543646,252.160241 L69.543646,252.160241 Z M143.585168,462.582714 L143.090054,462.36207 L142.793658,462.099579 L142.399588,461.875131 L142.03583,461.802851 L141.938154,461.951215 L142.005517,462.099579 L142.564626,462.582714 L142.894702,462.582714 L143.386449,462.734883 L143.915245,462.696841 L143.881563,462.544672 L143.585168,462.582714 L143.585168,462.582714 Z M152.91151,490.832805 L152.645428,490.943128 L152.251357,490.98117 L152.12,491.05345 L152.187363,491.281703 L152.251357,491.726796 L152.349033,491.985482 L152.349033,492.01972 L152.844148,491.281703 L152.91151,490.870848 L152.877829,490.870848 L152.91151,490.832805 L152.91151,490.832805 Z" id="Stroke-93" stroke="#00B4FF" stroke-width="5" stroke-linecap="round" stroke-linejoin="round" fill="#D9F4FF" sketch:type="MSShapeGroup"></path>
            <ellipse id="Oval-11" stroke="#FFFFFF" stroke-width="4" fill="#00B4FF" sketch:type="MSShapeGroup" cx="163" cy="459.833329" rx="18" ry="18"></ellipse>
        </g>
    </g>
</svg>