<?xml version="1.0" encoding="UTF-8" standalone="no"?>
<svg width="362px" height="592px" viewBox="0 0 362 592" version="1.1" xmlns="http://www.w3.org/2000/svg" xmlns:xlink="http://www.w3.org/1999/xlink" xmlns:sketch="http://www.bohemiancoding.com/sketch/ns">
    <!-- Generator: Sketch 3.3.2 (12043) - http://www.bohemiancoding.com/sketch -->
    <title>pson_volunteer</title>
    <desc>Created with Sketch.</desc>
    <defs>
        <path id="path-1" d="M295.853073,177.835483 C283.04849,185.402951 273.08937,199.591952 265.501469,220.402487 L250.325667,257.293891 L248.428691,257.293891 L285.419709,59.5938055 C288.265172,44.4588708 277.831808,29.7969028 262.656006,26.9591025 C247.480204,24.1213022 232.778645,34.5265699 229.933182,49.6615046 L202.901285,196.754152 L201.952797,28.3780026 C201.952797,12.7701012 189.148214,0 173.498168,0 C157.848122,0 145.043539,12.7701012 145.043539,28.3780026 L145.043539,196.754152 L118.960129,53.4452383 C116.114666,38.3103036 101.413107,27.9050359 86.2373053,30.7428362 C71.0615031,33.5806364 60.6281391,48.2426045 63.473602,63.3775392 L88.6085244,202.902719 L86.2373053,202.902719 L55.411457,121.552445 C53.040238,114.457944 47.8235559,108.782343 40.7098987,105.471576 C34.0704852,102.160809 26.0083403,102.160809 18.894683,104.525643 C11.7810257,106.890477 6.09009989,112.09311 2.77039315,119.187611 C-0.549313579,126.282112 -0.549313579,133.849579 1.82190552,140.94408 L44.978093,246.888623 C43.5553616,262.023558 36.9159481,362.765467 76.2781851,422.359273 C77.7009165,424.251139 80.0721356,425.67004 82.4433547,425.67004 C83.8660862,425.67004 85.2888176,425.197073 86.2373053,424.724106 C89.557012,422.359273 90.5054996,418.102572 88.1342806,414.791805 C49.2462874,356.143933 59.2054076,247.834556 59.2054076,246.888623 C59.2054076,245.942689 59.2054076,244.523789 58.7311638,243.577856 L15.1007324,136.214413 C13.678001,132.903646 14.1522448,129.119912 15.5749763,125.336178 C16.9977077,122.025411 19.8431706,119.187611 23.6371212,118.241678 C26.9568279,116.822778 30.7507785,117.295744 34.544729,118.714644 C38.3386796,120.133544 40.7098987,122.971345 41.6583863,126.755078 L74.8554536,214.25392 C76.2781851,217.564687 80.0721356,219.456554 83.3918424,218.51062 L97.1449131,214.25392 C100.46462,213.307986 102.835839,209.524253 101.887351,206.213486 L76.7524289,60.539739 C76.2781851,56.7560053 76.7524289,52.9722716 79.123648,50.1344713 C81.4948671,47.2966711 84.34033,44.9318375 88.1342806,44.4588708 C95.7221817,43.0399707 102.835839,48.2426045 104.25857,55.8100718 L130.816224,205.267552 C131.290468,208.578319 134.135931,210.943153 137.929882,210.943153 L152.157196,210.943153 C155.951147,210.943153 159.270853,207.632386 159.270853,203.848652 L159.270853,28.3780026 C159.270853,20.8105353 165.436023,14.1890013 173.498168,14.1890013 C181.560313,14.1890013 187.725483,20.3375686 187.725483,28.3780026 L187.725483,203.375686 C187.725483,207.159419 190.570945,210.470186 194.364896,210.470186 L208.592211,210.943153 C211.911917,210.943153 215.231624,208.578319 215.705868,205.267552 L243.686253,52.0263382 C245.108985,44.4588708 252.222642,39.256237 259.810543,40.6751371 C267.398444,42.0940372 272.615126,49.1885379 271.192395,56.7560053 L233.252889,260.131691 C217.128599,265.807291 205.272504,278.577393 204.324016,279.523326 C201.478553,282.361126 201.952797,287.090793 204.79826,289.455627 C207.643723,292.293427 212.386161,291.82046 214.75738,288.98266 C220.448306,282.834093 237.995327,268.172125 252.696886,271.955859 C256.016592,272.901792 259.810543,271.009925 260.759031,267.699158 L278.306052,225.605121 C284.945465,207.632386 293.00761,195.808218 302.966731,190.132618 C310.080388,185.875917 317.668289,184.929984 326.678921,186.821851 L309.606144,238.375222 L287.316684,293.239361 C258.387812,372.224801 222.819525,413.372905 222.345281,413.845872 C219.974062,416.683672 219.974062,421.413339 222.819525,423.778173 C224.242257,424.724106 225.664988,425.67004 227.561963,425.67004 C229.458939,425.67004 231.355914,424.724106 232.778645,423.305206 C234.201377,421.413339 270.718151,379.792269 300.121268,298.441994 L321.936483,243.577856 L342.328967,184.457017 C343.751699,180.673283 341.854724,176.88955 338.060773,175.47065 C322.410727,169.795049 308.183413,170.740983 295.853073,177.835483 Z"></path>
    </defs>
    <g id="Page-1" stroke="none" stroke-width="1" fill="none" fill-rule="evenodd" sketch:type="MSPage">
        <g id="pson_volunteer" sketch:type="MSArtboardGroup">
            <g id="noun_60406_cc-+-noun_61038_cc" sketch:type="MSLayerGroup" transform="translate(9.000000, 82.000000)">
                <g id="noun_60406_cc" transform="translate(0.408941, 0.014026)">
                    <mask id="mask-2" sketch:name="Mask" fill="white">
                        <use xlink:href="#path-1"></use>
                    </mask>
                    <use id="Mask" stroke="#00B4FF" stroke-width="7" fill="#80D9FF" sketch:type="MSShapeGroup" xlink:href="#path-1"></use>
                    <path d="M83.591055,418.485965 C83.591055,418.485965 78.266031,415.802894 72.008469,400.17449 C65.1000766,382.920623 60.0695198,352.951154 57.4387613,337.20911 C54.7240279,320.964573 49.3135031,292.732133 50.1539074,271.821984 C50.7683229,256.534676 57.4387613,245.182784 57.4387613,245.182784 C57.4387613,245.182784 49.6303063,239.837641 47.7256228,235.495803 C32.6323139,201.089714 6.4447842,128.939005 6.4447842,128.939005 C6.4447842,128.939005 11.8700316,111.703213 16.1579227,109.565041 C19.9643137,107.666971 40.4407689,114.408532 40.4407689,114.408532 L81.7216075,213.700094 L98.7195999,206.434858 L67.1518998,53.8648969 C67.1518998,53.8648969 69.1626198,45.1975718 69.5801844,44.1779152 C71.0776304,40.521282 82.855139,35.233536 86.5781768,34.4909336 C89.9112475,33.8261146 101.147885,44.1779152 101.147885,44.1779152 C101.147885,44.1779152 116.444978,65.4277681 118.591055,76.4859731 C126.158116,115.477173 130.2873,194.326131 130.2873,194.326131 L156.998431,194.326131 L154.570146,17.5387158 C154.570146,17.5387158 165.911831,3.0082433 171.568139,3.0082433 C174.815541,3.0082433 193.4227,15.1169703 193.4227,15.1169703 L188.566131,201.591367 L212.848977,201.591367 L244.416677,34.4909336 C244.416677,34.4909336 261.765869,33.3676242 266.271239,34.4909336 C271.479007,35.7893696 278.412662,49.0214061 278.412662,49.0214061 L244.416677,233.074057 L241.988396,264.556747 L210.420693,276.665474 L217.705546,286.352456 C217.705546,286.352456 233.22437,272.313712 241.988393,269.400238 C247.794078,267.470221 258.986385,264.556747 258.986385,264.556747 C258.986385,264.556747 278.447848,209.898651 292.98237,191.904385 C301.921266,180.837706 339.504562,181.164458 339.504562,181.164458 C339.504562,181.164458 313.682356,266.238562 297.005827,300.980169 C287.239081,321.326876 277.666295,357.631559 263.842954,380.800527 C249.716379,404.47774 237.091055,417.485965 237.091055,417.485965 C237.091055,417.485965 227.91531,426.592604 220.091055,427.985965 C203.581978,430.92594 164.091059,430.485974 164.091059,430.485974 C164.091059,430.485974 115.121773,429.199286 96.591055,427.985965 C87.1217725,427.365953 80.0910585,424.985974 80.0910585,424.985974" id="Path-7" fill="#80D9FF" sketch:type="MSShapeGroup"></path>
                    <path d="M82.5910585,429 C82.5910585,429 130.987446,432.485974 155.3621,432.485974 C179.501476,432.485974 228.133149,429 228.133149,429" id="Path-41" stroke="#00B4FF" stroke-width="6" sketch:type="MSShapeGroup"></path>
                </g>
                <g id="noun_61038_cc" transform="translate(118.652533, 243.802948)" fill="#FFFFFF" sketch:type="MSShapeGroup">
                    <path d="M102.481331,24.2729782 C103.307794,21.1610579 102.894563,17.8416763 101.241638,15.1446787 C99.5887132,12.2402198 96.9027106,10.1656062 93.8034768,9.33576083 C87.191778,7.67607002 80.5800792,11.4103743 78.7205389,17.8416763 L64.6706789,68.0473234 L54.3398996,12.0327584 C53.7200528,8.50591542 51.8605125,5.39399515 48.7612787,3.31938163 C45.8686605,1.24476811 42.3561955,0.414922704 38.8437305,1.03730676 C35.3312655,1.65969081 32.2320317,3.52684298 30.1658758,6.63876326 C28.0997199,9.54322218 27.2732576,13.0700652 27.8931043,16.5969081 L35.7444967,61.2010988 L34.091572,61.2010988 C27.8931043,61.2010988 22.5210991,65.5577872 21.2814055,71.366705 C19.2152497,69.9144756 16.529247,69.0846302 13.8432444,69.0846302 C6.40508322,69.0846302 0.619846763,75.1010094 0.619846763,82.3621567 L0.619846763,114.311205 L0.619846763,115.555973 L0.619846763,116.800741 C0.619846763,143.770717 5.16538969,155.388553 8.47123909,163.894468 C10.3307794,168.666079 11.7770885,172.192922 11.7770885,177.171994 C11.7770885,178.831685 13.2233976,180.283915 14.8763223,180.283915 C16.529247,180.283915 17.9755561,178.831685 17.9755561,177.171994 C17.9755561,170.948154 16.3226314,166.591465 14.2564755,161.612393 C11.5704729,154.558707 7.85139233,145.222946 7.02492998,125.929041 C9.09108586,127.173809 11.3638573,127.796193 13.8432444,127.796193 C20.041712,127.796193 25.4137173,123.439504 26.6534108,117.630586 C28.7195667,119.082816 31.4055693,119.912661 34.091572,119.912661 C41.5297331,119.912661 47.3149696,113.896282 47.3149696,106.635135 L47.3149696,89.0009199 C51.0340501,94.3949151 57.4391334,97.299374 63.2243698,99.7889102 L67.7699127,114.103743 C52.2737437,117.215664 45.8686605,137.546876 45.6620449,138.376722 C45.2488137,140.036412 46.075276,141.696103 47.7282007,142.318487 C49.3811254,142.73341 51.0340501,141.903565 51.6538969,140.243874 C51.6538969,140.036412 57.8523645,119.912661 71.9022245,119.912661 C72.9353024,119.912661 73.7617648,119.497739 74.3816116,118.667893 C75.0014583,117.838048 75.2080739,116.800741 74.7948427,115.970896 L68.5963751,96.6769899 C68.3897595,95.8471445 67.7699127,95.0172991 66.9434504,94.8098378 C54.3398996,89.2083813 48.3480475,85.0591542 51.6538969,73.6487799 L71.4889933,81.5323113 C74.3816116,82.7770794 76.654383,84.4367702 78.5139233,87.3412291 L87.6050092,107.257519 C88.6380871,110.784362 88.6380871,112.236591 88.6380871,116.385818 C88.0182403,138.999106 82.8528506,150.616941 78.7205389,159.952702 C76.0345363,165.969081 73.7617648,171.155615 73.7617648,177.379456 C73.7617648,179.039147 75.2080739,180.491376 76.8609986,180.491376 C78.5139233,180.491376 79.9602324,179.039147 79.9602324,177.379456 C79.9602324,172.400383 81.8197727,168.251156 84.2991598,162.442238 C88.4314715,153.106478 94.0100924,140.451335 94.8365547,117.008202 L94.8365547,116.385818 C94.8365547,111.821669 94.8365547,109.747055 93.3902456,105.182905 C93.3902456,104.975444 93.3902456,104.975444 93.18363,104.767983 L88.0182403,93.3576083 L89.2579339,82.1546953 L102.481331,24.2729782 Z M20.8681744,114.518666 C20.8681744,118.460432 17.7689405,121.572352 13.8432444,121.572352 C10.1241638,121.572352 7.02492998,118.667893 6.81831439,115.14105 L6.81831439,114.518666 L6.81831439,113.896282 L6.81831439,82.569618 C6.81831439,78.6278523 9.91754821,75.5159321 13.8432444,75.5159321 C17.7689405,75.5159321 20.8681744,78.6278523 20.8681744,82.569618 L20.8681744,106.635135 L20.8681744,114.518666 L20.8681744,114.518666 Z M41.3231175,106.635135 C41.3231175,110.576901 38.2238837,113.688821 34.2981875,113.688821 C30.3724914,113.688821 27.2732576,110.576901 27.2732576,106.635135 L27.2732576,82.569618 L27.2732576,74.6860866 C27.2732576,70.744321 30.3724914,67.6324007 34.2981875,67.6324007 C38.2238837,67.6324007 41.3231175,70.744321 41.3231175,74.6860866 L41.3231175,106.635135 L41.3231175,106.635135 Z M51.0340501,66.8025553 C50.2075878,66.5950939 49.3811254,66.5950939 48.5546631,66.8025553 C47.7282007,67.217478 47.108354,67.839862 46.9017384,68.4622461 C46.6951228,68.8771688 46.6951228,69.2920915 46.4885072,69.4995529 C45.6620449,67.4249393 44.2157358,65.7652485 42.5628111,64.3130191 L34.091572,15.7670627 C33.6783408,13.8999106 34.091572,12.0327584 35.3312655,10.3730676 C36.3643434,8.71337678 38.0172681,7.67607002 39.8768084,7.46860866 C41.7363487,7.05368596 43.595889,7.46860866 45.2488137,8.71337678 C46.9017384,9.75068353 47.9348163,11.4103743 48.1414319,13.2775265 L58.4722113,69.7070142 L51.0340501,66.8025553 L51.0340501,66.8025553 Z M73.7617648,75.7233934 L69.4228374,74.0637026 L84.7123909,19.7088284 C85.5388533,16.5969081 89.0513183,14.5222946 92.1505521,15.5596014 C93.8034768,15.9745241 95.0431703,17.0118308 95.8696327,18.4640603 C96.696095,19.9162898 96.9027106,21.3685192 96.4894794,23.0282101 L83.2660818,81.1173886 L83.2660818,81.5323113 L82.8528506,82.9845407 C80.3734636,79.6651591 77.4808454,77.3830842 73.7617648,75.7233934 L73.7617648,75.7233934 Z" id="Shape"></path>
                    <path d="M15.2421335,180.875565 C15.2421335,180.875565 9.05715647,157.93439 6.77428156,147.067048 C5.38775395,140.466656 5.92749641,128.472364 5.92749641,128.472364 C5.92749641,128.472364 5.20115761,111.294778 5.0807112,103.961189 C4.91889587,94.1087824 6.77428156,74.3787365 6.77428156,74.3787365 L22.8632003,74.3787365 L33.0246226,63.3909686 L42.3392598,65.0813944 L31.3310522,14.3686196 C31.3310522,14.3686196 37.2585486,3.38085166 38.952119,1.69042583 C40.6456894,-4.06341627e-14 51.6538969,11.8329808 51.6538969,11.8329808 L62.6621045,72.6883107 L68.5896008,74.3787374 L82.9849491,14.3686196 L91.4528011,10.142555 L102.461009,19.439897 L85.5253047,85.3665044 L92.2995863,116.639382 L77.9042379,180.875565" id="Path-8"></path>
                </g>
            </g>
        </g>
    </g>
</svg>