<?xml version="1.0" encoding="UTF-8" standalone="no"?>
<svg width="362px" height="592px" viewBox="0 0 362 592" version="1.1" xmlns="http://www.w3.org/2000/svg" xmlns:xlink="http://www.w3.org/1999/xlink" xmlns:sketch="http://www.bohemiancoding.com/sketch/ns">
    <!-- Generator: Sketch 3.3.2 (12043) - http://www.bohemiancoding.com/sketch -->
    <title>simi_school</title>
    <desc>Created with Sketch.</desc>
    <defs></defs>
    <g id="Page-1" stroke="none" stroke-width="1" fill="none" fill-rule="evenodd" sketch:type="MSPage">
        <g id="simi_school" sketch:type="MSArtboardGroup">
            <g id="Imported-Layers" sketch:type="MSLayerGroup" transform="translate(14.000000, 44.000000)">
                <path d="M74.2987156,2.54443636 L2.78620183,73.584 L2.78620183,256.306909 L64.9105596,318.436364 L213.413284,318.430255 L213.413284,381.882327 L137.067688,381.882327 L137.067688,340.499345 L2.91756881,340.499345 L2.91756881,440.3952 L64.3026055,502.249745 L270.952018,502.249745 L331.139477,442.117964 L331.139477,255.466909 L268.76155,195.194618 L132.469844,195.194618 L132.472899,127.151564 L207.895872,127.151564 L207.892817,174.044945 L331.139477,174.044945 L331.139477,72.7042909 L262.541477,2.54443636 L74.2987156,2.54443636" id="Fill-1" fill="#80D9FF" sketch:type="MSShapeGroup"></path>
                <path d="M10.9615046,77.2830545 L10.9615046,253.081309 L68.2344495,310.354036 C68.2344495,310.354036 206.722734,310.354036 221.588587,310.347927 C221.588587,322.889891 221.585532,377.819782 221.579422,390.352582 C208.598532,390.352582 141.683862,390.352582 128.690752,390.361745 C128.690752,379.774691 128.696862,348.981818 128.696862,348.981818 L11.0959266,348.978764 L11.0959266,437.093236 L68.5491193,495.193745 L266.451936,495.193745 L323.68822,437.927127 L323.68822,259.886836 L265.129101,203.674036 C265.129101,203.674036 138.919046,203.670982 124.086798,203.670982 C124.089853,190.967127 124.092908,131.785309 124.086798,119.0784 L216.065064,119.0784 L216.065064,165.959564 L323.68822,165.959564 L323.68822,77.3258182 L259.031229,11.0208 L77.5340092,11.0208 L10.9615046,77.2830545" id="Fill-2" fill="#00B4FF" sketch:type="MSShapeGroup"></path>
                <path d="M80.9098349,19.8942545 L19.2926147,81.3853091 L19.2926147,250.255855 L71.7110917,302.677964 L229.907477,302.677964 L229.904422,399.238255 L120.457404,399.238255 L120.457404,357.855273 L19.4117615,357.861382 L19.4117615,434.188364 L71.9402202,487.511564 L263.103606,487.511564 L315.448761,435.058909 L315.451817,263.824145 L261.652459,212.541382 L115.85345,212.541382 L115.850394,111.390109 L224.399229,111.390109 L224.399229,158.292655 L315.448761,158.292655 L315.451817,81.3853091 L255.667624,19.8942545 L80.9098349,19.8942545" id="Fill-3" fill="#80D9FF" sketch:type="MSShapeGroup"></path>
                <path d="M199.317303,279.591709 C199.317303,279.616145 199.247037,279.7536 198.972083,280.052945 C199.097339,279.915491 199.219541,279.7536 199.317303,279.591709" id="Fill-4" fill="#9D1535" sketch:type="MSShapeGroup"></path>
                <path d="M171.886046,11.2010182 C168.418569,11.3904 166.619147,12.6794182 165.882881,13.8645818 C165.058018,15.1933091 164.663917,16.2562909 164.679193,17.5941818 C164.694468,18.5777455 164.902211,19.4574545 165.113009,20.2730182 C163.802394,22.8113455 161.981587,26.7517091 161.81356,26.7730909 C161.81356,26.7730909 160.365468,26.7883636 160.429624,26.7792 C154.979422,26.9105455 154.096514,29.2808727 153.036413,31.3121455 C152.385688,32.5675636 152.141284,33.8535273 152.159615,35.0875636 C152.19322,38.4261818 154.090404,43.0874182 154.585321,43.8052364 C154.585321,43.8052364 155.51711,45.1278545 155.905101,45.6837818 C147.320422,51.5179636 147.687028,57.1047273 147.729798,60.9229091 C147.745073,61.9217455 148.013917,62.8869818 148.527165,63.8552727 C149.080128,64.8877091 149.877495,65.5902545 150.754294,66.1522909 C150.442679,66.4669091 150.143284,66.7723636 149.84389,67.0869818 C143.226661,72.1697455 135.747908,76.8523636 135.567661,83.0133818 C135.417963,83.5723636 136.520835,87.1309091 137.232661,87.9770182 C137.247936,87.9984 137.278486,88.0014545 137.293761,88.0197818 C132.747853,90.2801455 127.893385,94.4312727 127.954486,99.5232 C127.954486,99.7034182 127.960596,99.8928 127.978927,100.079127 C128.492174,106.420364 136.248936,108.943418 138.610486,109.566545 L140.614596,110.091927 L142.386523,109.032 C149.113734,105.006109 153.268596,104.046982 155.575156,103.866764 C155.581266,103.961455 155.608761,104.056145 155.608761,104.144727 C155.749294,115.782545 139.291761,120.840873 138.595211,121.069964 L139.423128,120.874473 C117.802569,123.959564 109.416468,140.035636 107.788128,143.643055 C104.345092,147.387927 103.24833,150.634909 103.272771,153.136582 C103.318596,156.612655 105.331872,158.698909 105.475459,158.845527 L106.040642,159.404509 L106.752468,159.777164 C114.24955,163.515927 129.225385,155.012073 137.483174,149.611636 L137.916991,149.336727 L138.271376,148.976291 C139.355917,147.885818 140.956761,146.612073 142.410963,146.6976 C143.990422,146.7984 145.297982,148.432582 145.313257,148.450909 L146.17478,149.556655 L147.546495,150.112582 C149.297037,150.757091 150.363248,151.309964 151.102569,151.752873 C147.729798,152.776145 140.043303,155.830691 121.184505,164.878255 L119.666147,165.596073 L118.914606,167.105018 C116.751633,171.442473 108.099743,176.372509 103.156679,178.461818 C95.2746606,181.882909 90.643211,186.382255 89.375367,191.840727 C89.1217982,192.937309 89.0148716,193.981964 89.0270917,194.968582 C89.0851376,199.797818 91.8194037,203.197527 92.1921193,203.634327 L93.3622018,205.011927 L95.1371835,205.305164 C99.9458257,206.111564 123.640761,200.848582 137.342642,197.638255 L137.675642,197.561891 L137.993367,197.4336 C143.801009,195.185455 145.621817,195.9888 145.83567,196.098764 C145.890661,196.642473 145.979257,197.580218 145.979257,197.580218 C145.979257,197.580218 146.391688,197.934545 146.794954,198.282764 C146.306147,200.720291 142.044358,206.691927 137.318202,211.435636 L136.444459,212.303127 L136.090073,213.491345 C134.837505,217.654691 129.683642,220.241891 127.807844,220.889455 L128.19278,220.779491 C101.485569,227.447564 101.20145,237.836073 101.745248,240.860073 L102.542615,245.2464 L126.818009,243.221236 L128.024752,242.1888 C129.500339,240.924218 129.931101,241.376291 130.288541,241.730618 L131.247826,242.720291 L132.753963,243.227345 C132.753963,243.227345 134.461734,243.648873 136.132844,244.073455 C136.142009,244.229236 136.181725,244.278109 136.18478,244.452218 C136.20922,246.520145 135.714303,249.812945 134.874165,253.111855 L122.22933,253.111855 C122.22933,253.111855 121.749688,255.9984 121.633596,256.746764 C120.89733,257.220218 119.531725,257.727273 117.903385,257.7456 C112.135459,255.335564 106.248385,261.551564 105.54878,262.251055 L105.063028,262.742836 C105.063028,262.742836 104.455073,263.640873 104.393972,263.756945 C103.822679,264.618327 101.076193,266.096727 98.5374495,267.229964 L99.3592569,266.945891 C94.3886972,268.1952 92.9161651,270.874036 92.5678899,272.911418 C92.5037339,273.3024 92.4731835,273.681164 92.4792936,274.056873 C92.506789,276.436364 93.9243303,278.403491 95.5404495,279.729164 C91.5994404,280.737164 85.6879266,282.24 85.7520826,287.579345 C85.7551376,287.713745 85.7581927,287.842036 85.7673578,287.9856 C85.8926147,289.888582 86.9038349,291.577745 88.5474495,292.601018 C90.4018624,293.755636 95.3265963,296.831564 134.351752,280.807418 C134.351752,280.807418 134.547275,280.731055 134.742798,280.642473 C133.728523,281.6688 132.570661,282.695127 131.263101,283.587055 L130.710138,283.9536 L130.264101,284.466764 C126.818009,288.492655 120.484899,290.151273 120.417688,290.1696 L120.857615,290.087127 C105.066083,292.616291 99.7625229,299.641745 98.0028165,303.6096 C96.4416881,307.152873 96.505844,310.778618 98.1738991,313.326109 C99.8755596,315.946909 100.20856,316.154618 118.132514,312.932073 C117.280156,315.204655 116.415578,318.766255 114.875835,321.487855 C113.745468,322.505018 101.076193,333.889309 100.569055,334.344436 C83.7449174,343.902109 73.6632661,374.881309 72.5512294,378.4368 L72.392367,378.959127 L72.3434862,379.484509 C72.3098807,379.939636 72.2946055,380.370327 72.3037706,380.776582 C72.3495963,385.080436 74.595055,387.160582 76.0064862,388.049455 C81.1634037,391.265891 88.7215872,387.426327 91.7369174,385.636364 L92.8642294,384.961309 L95.1585688,380.862109 C97.700367,376.561309 105.044697,375.144 107.818679,374.939345 C115.770963,375.895418 123.729358,368.384291 125.321037,366.765382 L125.736523,366.356073 L126.032862,365.852073 C126.763018,364.633309 127.780349,364.468364 128.024752,364.450036 C139.322312,365.9376 147.567881,353.6736 150.467119,348.5664 C153.091404,347.876073 155.291037,348.490036 157.359303,352.760291 C158.761569,355.637673 159.647532,364.456145 159.83389,369.819927 C159.83389,369.822982 159.836945,372.474327 159.836945,372.483491 C159.83389,372.462109 159.338972,388.883345 159.338972,388.883345 L158.856275,404.690618 C158.856275,404.690618 159.265651,404.137745 159.308422,404.082764 C159.311477,404.110255 159.283982,404.592873 159.283982,404.592873 C159.280927,404.672291 159.119009,413.084509 159.119009,413.084509 C159.002917,420.122182 158.517165,425.886109 158.19944,428.329745 C156.956037,437.713309 155.242156,438.797673 154.597541,439.203927 C154.026248,439.546036 152.061853,440.337164 150.555716,440.7312 C148.20333,441.345164 147.357083,441.84 144.54033,443.037382 C135.616541,446.834182 133.120569,453.285382 130.740688,459.113455 C129.53089,462.073309 128.046138,464.489455 126.640817,465.378327 C122.024642,468.307636 122.024642,468.307636 120.258826,468.594764 L116.470569,469.321745 C107.937826,471.203345 103.648541,479.600291 103.190284,480.544145 L99.765578,487.606255 L245.11855,487.542109 L244.376174,481.167273 C243.646018,474.358691 240.609303,470.012073 226.055064,465.182836 C219.850266,463.121018 218.570202,461.627345 216.45611,459.128727 C213.782945,455.994764 210.465165,453.288436 199.845826,447.884945 C195.776505,445.807855 192.113505,436.974109 189.819165,425.751709 C188.517716,419.364655 189.305917,416.716364 189.315083,416.636945 L189.327303,416.383418 L188.560486,394.464 C188.566596,394.607564 188.45967,376.827055 188.45967,376.827055 C188.45967,376.897309 188.661303,359.443636 188.749899,352.360145 C193.839606,355.597964 199.839716,356.034764 200.621807,356.074473 C200.661523,356.074473 219.239257,356.838109 219.239257,356.838109 L219.560037,356.807564 C223.378844,356.468509 234.596972,363.069382 242.665349,369.453382 L242.958633,369.688582 L243.279413,369.871855 C249.056505,373.173818 256.281688,376.475782 260.995624,372.703418 C264.078165,370.241455 264.191202,366.154473 263.338844,363.411491 L263.516037,364.162909 C258.814321,330.541527 239.42089,325.028073 236.265028,324.349964 C235.168266,324.050618 234.45644,323.751273 234.034844,323.5344 C234.208982,323.286982 234.416725,323.033455 234.612248,322.847127 L234.297578,323.115927 C240.12355,318.586036 242.524817,314.037818 241.440275,309.611782 C239.811936,303.001745 231.355569,301.147636 229.669183,300.842182 L228.887092,300.695564 L228.105,300.805527 C219.896092,301.981527 210.715679,296.550545 209.692239,295.933527 C200.850936,289.173818 198.471055,283.916945 198.43745,280.954036 C198.428284,280.1232 198.599367,279.472582 198.871266,279.017455 L198.736844,279.203782 L199.338688,278.357673 C199.338688,278.357673 199.412009,278.04 199.48533,277.725382 C202.363183,277.752873 209.884706,281.036509 216.217817,285.144873 L215.658743,284.711127 C222.853376,291.0096 230.805661,288.116945 234.010404,285.706909 L235.250752,284.775273 C235.250752,284.775273 235.635688,283.559564 235.748725,283.208291 C236.234477,282.145309 239.176486,279.240436 241.919917,277.096145 C245.894532,274.066036 246.985183,271.103127 246.957688,268.7328 C246.948523,267.966109 246.814101,267.2544 246.633853,266.628218 C244.547257,259.648582 232.476771,257.146909 222.224037,256.288582 C220.641523,255.335564 215.056899,251.978618 215.056899,251.978618 C206.148385,246.730909 200.982303,243.4656 197.884486,237.164073 C204.138165,237.735273 209.954972,238.2912 213.336908,238.657745 C217.012128,240.233891 224.283138,239.067055 226.262807,238.129309 C229.119275,236.7792 230.09689,234.341673 230.07245,232.3776 C230.07245,232.255418 230.07245,232.133236 230.057174,232.014109 C229.702789,227.264291 223.727119,219.716509 213.352183,215.0736 C204.089284,210.925527 197.068789,202.039855 196.436394,199.8528 C195.883431,197.962036 195.681798,195.900218 195.660413,193.942255 C195.639028,191.886545 195.819275,189.992727 196.017853,188.505164 C200.206321,188.664 204.758339,193.817018 204.80722,193.881164 L206.438615,195.826909 L208.986523,195.631418 C210.636248,195.497018 213.645468,196.6944 215.160771,197.552727 L217.045734,198.603491 L219.114,197.940655 C221.466385,197.170909 229.378954,198.325527 233.640743,198.948655 C241.10422,200.039127 243.850706,201.410618 246.215312,197.192291 L246.835486,196.220945 L247.113495,194.9136 C248.479101,174.304582 233.283303,166.729309 232.647853,166.414691 L231.031734,165.629673 C231.031734,165.629673 230.784275,165.690764 230.659018,165.718255 C229.879982,164.878255 228.774055,163.244073 228.040844,161.784 C224.304523,155.076218 217.219872,153.875782 211.998798,154.275927 C210.208541,152.825018 207.914202,152.003345 205.488495,151.700945 C204.859156,151.010618 204.645303,150.781527 204.074009,150.155345 C203.951807,149.400873 203.799055,148.707491 203.582147,148.084364 C204.428394,148.203491 205.265477,148.319564 206.11478,148.438691 C229.394229,151.700945 232.351514,151.780364 234.911642,149.211491 C236.381119,147.714764 237.160156,145.824 237.138771,143.838545 C237.129606,143.340655 237.07767,142.827491 236.964633,142.317382 C235.168266,134.054836 216.489716,125.419636 201.141165,119.631273 C189.978028,115.376291 187.069624,110.910545 186.489165,109.8048 C186.440284,109.389382 186.018688,108.778473 186.018688,108.424145 C186.003413,107.440582 186.385294,106.979345 186.703018,106.701382 C187.894486,105.684218 190.860936,106.001891 193.778505,106.933527 L194.334523,107.107636 L194.918037,107.159564 C204.526156,107.886545 208.974303,102.877091 210.080229,99.8042182 L210.672908,98.1730909 L210.10467,96.5266909 C207.984468,90.4084364 203.194156,86.2114909 198.843771,84.0763636 C199.338688,83.4196364 202.063789,82.3291636 201.849936,77.6709818 C201.758284,75.6122182 199.271477,70.3248 191.78356,65.2023273 C197.297917,63.3757091 191.914927,53.7233455 185.334358,48.5642182 C185.334358,48.5642182 183.574651,47.2232727 183.324138,47.0461091 C187.204046,45.9220364 189.425064,41.4104727 189.913872,38.4414545 C189.987193,37.9924364 190.017743,37.5464727 190.008578,37.1096727 C189.987193,34.2017455 188.245817,31.7489455 185.615422,31.1472 C180.864826,30.0597818 179.276202,28.8776727 178.824055,28.4561455 C180.039963,28.2912 178.842385,21.6964364 178.035853,20.4807273 C178.112229,19.8392727 178.634642,18.3272727 178.628532,17.6644364 C178.597982,15.5842909 178.332193,14.2555636 176.881046,12.7069091 C175.549046,11.3018182 173.355523,11.2010182 171.886046,11.2010182" id="Fill-5" fill="#80D9FF" sketch:type="MSShapeGroup"></path>
                <path d="M183.877101,349.265891 L183.553266,376.784291 L183.654083,394.5648 L184.420899,416.224582 C184.420899,416.224582 183.556321,419.492945 185.013578,426.6528 C186.929092,436.057745 190.607367,448.614982 197.618697,452.182691 C217.039624,462.058036 209.42645,464.761309 224.500046,469.764655 C239.952468,474.893236 239.06956,478.567855 239.573642,482.642618 L107.574275,482.642618 C107.574275,482.642618 111.075358,475.464436 117.533725,474.031855 C123.989037,472.611491 122.009367,474.068509 129.277321,469.446982 C135.201055,465.683782 134.165394,452.711127 146.468064,447.478691 C151.478339,445.352727 154.915266,444.744873 157.221826,443.281745 C158.87155,442.237091 161.526385,440.572364 163.069183,428.897891 C163.585486,425.015564 164.004028,411.202909 164.19344,404.736436 L164.954147,387.988364 L164.251486,388.950545 L164.755569,372.401018 L164.746404,369.584727 C164.746404,369.584727 164.263706,355.652945 161.786064,350.542691 C159.302312,345.432436 154.884716,341.113309 147.164615,344.302255 C147.164615,344.302255 138.54633,361.728436 127.90255,359.455855 C127.90255,359.455855 124.105128,359.449745 121.826064,363.240436 C121.826064,363.240436 113.736303,371.463273 107.653706,369.942109 C107.653706,369.942109 95.4243578,370.666036 90.9273303,378.3024 C90.4935138,379.035491 89.2226147,381.338618 89.2226147,381.338618 C89.2226147,381.338618 76.4861284,388.938327 77.2468349,379.826618 C77.2468349,379.826618 87.6156606,346.529018 103.584385,338.171782 L118.786294,324.490473 C118.786294,324.490473 127.282376,307.287273 121.957431,306.517527 L102.289046,310.567855 C102.289046,310.567855 103.031422,298.893382 122.030752,295.851055 C122.030752,295.851055 129.439239,292.906473 133.994312,287.585455 C133.994312,287.585455 145.401853,279.997964 141.601376,273.913309 C141.601376,273.913309 137.803954,271.637673 132.485119,276.185891 C132.485119,276.185891 91.0373119,293.205818 90.6707064,287.585455 C90.4629633,284.369018 102.838954,284.543127 104.360367,280.737164 C104.360367,280.737164 104.360367,272.3952 99.0384771,276.192 C99.0384771,276.192 94.4742385,273.149673 100.550725,271.631564 C100.550725,271.631564 107.397083,268.583127 108.918495,265.546909 C108.918495,265.546909 113.476624,260.995636 117.286266,262.507636 C117.286266,262.507636 125.644872,262.510691 126.396413,257.9472 L138.55855,257.9472 C138.55855,257.9472 143.076963,244.467491 140.031083,239.904 L133.948486,238.385891 C133.948486,238.385891 130.148009,233.831564 124.832229,238.385891 L106.587495,239.907055 C106.587495,239.907055 105.069138,231.5376 129.393413,225.465164 C129.393413,225.465164 138.512725,222.425891 140.794844,214.826182 C140.794844,214.826182 155.993697,199.626764 150.671807,195.066327 C150.671807,195.066327 149.917211,187.469673 136.230606,192.778473 C136.230606,192.778473 100.501844,201.150982 95.9528807,200.387345 C95.9528807,200.387345 87.5881651,190.502836 105.069138,182.909236 C105.069138,182.909236 119.507284,176.830691 123.310817,169.224873 C123.310817,169.224873 150.766514,156.059782 153.809339,156.059782 C153.809339,156.059782 163.686303,150.744873 149.245101,145.423855 C149.245101,145.423855 143.156394,137.060509 134.803899,145.423855 C134.803899,145.423855 115.034697,158.341527 108.955156,155.2992 C108.955156,155.2992 105.921495,152.262982 111.997982,146.184436 C111.997982,146.184436 118.838229,128.697164 140.119679,125.660945 C140.119679,125.660945 164.621147,118.250618 159.916376,99.4285091 C159.916376,99.4285091 154.279817,96.1082182 139.869165,104.740364 C139.869165,104.740364 123.726303,99.4010182 142.026028,91.2576 L147.503725,83.832 C147.503725,83.832 141.919101,87.7815273 141.085073,83.6334545 C140.669587,81.5594182 140.51378,78.6178909 146.287817,75.768 C153.723798,72.1025455 151.970202,68.7608727 160.771789,68.3637818 C160.771789,68.3637818 161.966312,66.6532364 161.205606,64.7349818 C152.740073,63.7269818 148.701303,53.0635636 163.503,46.5909818 L165.009138,40.3413818 L158.614927,40.9064727 C158.614927,40.9064727 153.259431,31.2571636 163.52744,31.4526545 C163.52744,31.4526545 168.281092,26.7089455 169.930817,19.824 C169.930817,19.824 167.306532,15.7492364 171.864661,15.7492364 C171.864661,15.7492364 174.944147,14.3960727 173.428844,21.2321455 C173.428844,21.2321455 175.267982,25.1480727 175.267982,28.9387636 C175.267982,28.9387636 173.379963,33.3037091 184.518661,35.8573091 C185.704018,36.1291636 185.746789,44.0679273 178.145835,43.3042909 C178.145835,43.3042909 175.659028,48.2770909 182.84144,53.9402182 C182.84144,53.9402182 194.713349,64.9640727 183.944312,65.5627636 C183.944312,65.5627636 200.511826,76.1223273 195.749009,80.8813091 C193.677688,82.9553455 187.259037,80.0565818 186.660248,81.2356364 C185.792615,82.9614545 186.131725,83.8228364 188.398569,84.7666909 C190.298807,85.5639273 202.195156,88.6032 205.46711,98.0539636 C205.46711,98.0539636 203.741009,102.825164 195.293807,102.1776 C195.293807,102.1776 179.340358,96.3098182 181.613312,110.751709 C181.613312,110.751709 183.449394,118.064291 199.408954,124.145891 C199.408954,124.145891 238.259972,138.798545 231.425835,145.671273 C229.598917,147.507055 197.132945,141.620945 191.044239,141.620945 L190.286587,146.184436 C190.286587,146.184436 199.408954,143.899636 199.408954,152.262982 L203.13,156.301091 C203.13,156.301091 209.203431,156.301091 209.970248,159.343418 C209.970248,159.343418 219.844156,157.064727 223.650743,163.909964 C223.650743,163.909964 227.45122,171.503564 230.481826,170.749091 C230.481826,170.749091 243.196927,176.986473 242.039064,194.547055 C241.241697,195.842182 223.494936,191.263418 217.589532,193.2 C217.589532,193.2 212.567037,190.334836 208.589367,190.661673 C208.589367,190.661673 200.068844,180.334255 191.728569,184.421236 C191.728569,184.421236 189.541156,193.630691 191.728569,201.147927 C192.920037,205.256291 201.333633,214.997236 211.354183,219.478255 C220.904257,223.751564 224.998018,230.135564 225.159936,232.313455 C225.382954,235.254982 216.951028,234.308073 215.652633,234.011782 C214.354239,233.715491 190.967862,231.543709 190.967862,231.543709 C190.967862,231.543709 191.059514,233.700218 192.309028,236.974691 C196.726624,248.581964 205.830661,251.7312 220.656798,260.995636 C220.656798,260.995636 251.827431,263.271273 238.904587,273.149673 C238.904587,273.149673 231.819936,278.666182 231.062284,281.705455 C231.062284,281.705455 224.991908,286.275055 218.897092,280.947927 C218.897092,280.947927 196.332523,266.307491 194.81111,276.198109 C194.81111,276.198109 187.876156,285.456436 206.878541,299.886109 C206.878541,299.886109 218.157771,307.110109 228.798495,305.598109 C228.798495,305.598109 244.959688,308.530473 231.276138,319.169455 C231.276138,319.169455 223.687404,326.014691 235.08578,329.0448 C235.08578,329.0448 254.088165,332.099345 258.655459,364.767709 C258.655459,364.767709 261.683009,374.652218 245.717339,365.531345 C245.717339,365.531345 227.481771,351.089455 219.12011,351.850036 L200.875376,351.089455 C200.875376,351.089455 193.524936,350.735127 189.336468,346.568727 C189.336468,346.568727 184.365908,342.668073 183.877101,349.265891" id="Fill-6" fill="#FFFFFF" sketch:type="MSShapeGroup"></path>
            </g>
        </g>
    </g>
</svg>