<?xml version="1.0" encoding="UTF-8" standalone="no"?>
<svg width="344px" height="515px" viewBox="0 0 344 515" version="1.1" xmlns="http://www.w3.org/2000/svg" xmlns:xlink="http://www.w3.org/1999/xlink" xmlns:sketch="http://www.bohemiancoding.com/sketch/ns">
    <!-- Generator: Sketch 3.3.2 (12043) - http://www.bohemiancoding.com/sketch -->
    <title>simi_school</title>
    <desc>Created with Sketch.</desc>
    <defs></defs>
    <g id="Page-1" stroke="none" stroke-width="1" fill="none" fill-rule="evenodd" sketch:type="MSPage">
        <g id="recipient-icons" sketch:type="MSArtboardGroup" transform="translate(-550.000000, -39.000000)">
            <g id="simi_school" sketch:type="MSLayerGroup" transform="translate(557.000000, 46.000000)">
                <path d="M72.2987156,0.544436364 L0.786201835,71.584 L0.786201835,254.306909 L62.9105596,316.436364 L211.413284,316.430255 L211.413284,379.882327 L135.067688,379.882327 L135.067688,338.499345 L0.917568807,338.499345 L0.917568807,438.3952 L62.3026055,500.249745 L268.952018,500.249745 L329.139477,440.117964 L329.139477,253.466909 L266.76155,193.194618 L130.469844,193.194618 L130.472899,125.151564 L205.895872,125.151564 L205.892817,172.044945 L329.139477,172.044945 L329.139477,70.7042909 L260.541477,0.544436364 L72.2987156,0.544436364" id="Fill-1" stroke="#FFFFFF" stroke-width="15" fill="#80D9FF" sketch:type="MSShapeGroup"></path>
                <path d="M8.96150459,75.2830545 L8.96150459,251.081309 L66.2344495,308.354036 C66.2344495,308.354036 204.722734,308.354036 219.588587,308.347927 C219.588587,320.889891 219.585532,375.819782 219.579422,388.352582 C206.598532,388.352582 139.683862,388.352582 126.690752,388.361745 C126.690752,377.774691 126.696862,346.981818 126.696862,346.981818 L9.09592661,346.978764 L9.09592661,435.093236 L66.5491193,493.193745 L264.451936,493.193745 L321.68822,435.927127 L321.68822,257.886836 L263.129101,201.674036 C263.129101,201.674036 136.919046,201.670982 122.086798,201.670982 C122.089853,188.967127 122.092908,129.785309 122.086798,117.0784 L214.065064,117.0784 L214.065064,163.959564 L321.68822,163.959564 L321.68822,75.3258182 L257.031229,9.0208 L75.5340092,9.0208 L8.96150459,75.2830545" id="Fill-2" fill="#00B4FF" sketch:type="MSShapeGroup"></path>
                <path d="M78.9098349,17.8942545 L17.2926147,79.3853091 L17.2926147,248.255855 L69.7110917,300.677964 L227.907477,300.677964 L227.904422,397.238255 L118.457404,397.238255 L118.457404,355.855273 L17.4117615,355.861382 L17.4117615,432.188364 L69.9402202,485.511564 L261.103606,485.511564 L313.448761,433.058909 L313.451817,261.824145 L259.652459,210.541382 L113.85345,210.541382 L113.850394,109.390109 L222.399229,109.390109 L222.399229,156.292655 L313.448761,156.292655 L313.451817,79.3853091 L253.667624,17.8942545 L78.9098349,17.8942545" id="Fill-3" stroke="#D9F4FF" stroke-width="5" fill="#D9F4FF" sketch:type="MSShapeGroup"></path>
                <path d="M197.317303,277.591709 C197.317303,277.616145 197.247037,277.7536 196.972083,278.052945 C197.097339,277.915491 197.219541,277.7536 197.317303,277.591709" id="Fill-4" fill="#9D1535" sketch:type="MSShapeGroup"></path>
                <path d="M169.886046,9.20101818 C166.418569,9.3904 164.619147,10.6794182 163.882881,11.8645818 C163.058018,13.1933091 162.663917,14.2562909 162.679193,15.5941818 C162.694468,16.5777455 162.902211,17.4574545 163.113009,18.2730182 C161.802394,20.8113455 159.981587,24.7517091 159.81356,24.7730909 C159.81356,24.7730909 158.365468,24.7883636 158.429624,24.7792 C152.979422,24.9105455 152.096514,27.2808727 151.036413,29.3121455 C150.385688,30.5675636 150.141284,31.8535273 150.159615,33.0875636 C150.19322,36.4261818 152.090404,41.0874182 152.585321,41.8052364 C152.585321,41.8052364 153.51711,43.1278545 153.905101,43.6837818 C145.320422,49.5179636 145.687028,55.1047273 145.729798,58.9229091 C145.745073,59.9217455 146.013917,60.8869818 146.527165,61.8552727 C147.080128,62.8877091 147.877495,63.5902545 148.754294,64.1522909 C148.442679,64.4669091 148.143284,64.7723636 147.84389,65.0869818 C141.226661,70.1697455 133.747908,74.8523636 133.567661,81.0133818 C133.417963,81.5723636 134.520835,85.1309091 135.232661,85.9770182 C135.247936,85.9984 135.278486,86.0014545 135.293761,86.0197818 C130.747853,88.2801455 125.893385,92.4312727 125.954486,97.5232 C125.954486,97.7034182 125.960596,97.8928 125.978927,98.0791273 C126.492174,104.420364 134.248936,106.943418 136.610486,107.566545 L138.614596,108.091927 L140.386523,107.032 C147.113734,103.006109 151.268596,102.046982 153.575156,101.866764 C153.581266,101.961455 153.608761,102.056145 153.608761,102.144727 C153.749294,113.782545 137.291761,118.840873 136.595211,119.069964 L137.423128,118.874473 C115.802569,121.959564 107.416468,138.035636 105.788128,141.643055 C102.345092,145.387927 101.24833,148.634909 101.272771,151.136582 C101.318596,154.612655 103.331872,156.698909 103.475459,156.845527 L104.040642,157.404509 L104.752468,157.777164 C112.24955,161.515927 127.225385,153.012073 135.483174,147.611636 L135.916991,147.336727 L136.271376,146.976291 C137.355917,145.885818 138.956761,144.612073 140.410963,144.6976 C141.990422,144.7984 143.297982,146.432582 143.313257,146.450909 L144.17478,147.556655 L145.546495,148.112582 C147.297037,148.757091 148.363248,149.309964 149.102569,149.752873 C145.729798,150.776145 138.043303,153.830691 119.184505,162.878255 L117.666147,163.596073 L116.914606,165.105018 C114.751633,169.442473 106.099743,174.372509 101.156679,176.461818 C93.2746606,179.882909 88.643211,184.382255 87.375367,189.840727 C87.1217982,190.937309 87.0148716,191.981964 87.0270917,192.968582 C87.0851376,197.797818 89.8194037,201.197527 90.1921193,201.634327 L91.3622018,203.011927 L93.1371835,203.305164 C97.9458257,204.111564 121.640761,198.848582 135.342642,195.638255 L135.675642,195.561891 L135.993367,195.4336 C141.801009,193.185455 143.621817,193.9888 143.83567,194.098764 C143.890661,194.642473 143.979257,195.580218 143.979257,195.580218 C143.979257,195.580218 144.391688,195.934545 144.794954,196.282764 C144.306147,198.720291 140.044358,204.691927 135.318202,209.435636 L134.444459,210.303127 L134.090073,211.491345 C132.837505,215.654691 127.683642,218.241891 125.807844,218.889455 L126.19278,218.779491 C99.4855688,225.447564 99.2014495,235.836073 99.7452477,238.860073 L100.542615,243.2464 L124.818009,241.221236 L126.024752,240.1888 C127.500339,238.924218 127.931101,239.376291 128.288541,239.730618 L129.247826,240.720291 L130.753963,241.227345 C130.753963,241.227345 132.461734,241.648873 134.132844,242.073455 C134.142009,242.229236 134.181725,242.278109 134.18478,242.452218 C134.20922,244.520145 133.714303,247.812945 132.874165,251.111855 L120.22933,251.111855 C120.22933,251.111855 119.749688,253.9984 119.633596,254.746764 C118.89733,255.220218 117.531725,255.727273 115.903385,255.7456 C110.135459,253.335564 104.248385,259.551564 103.54878,260.251055 L103.063028,260.742836 C103.063028,260.742836 102.455073,261.640873 102.393972,261.756945 C101.822679,262.618327 99.0761927,264.096727 96.5374495,265.229964 L97.3592569,264.945891 C92.3886972,266.1952 90.9161651,268.874036 90.5678899,270.911418 C90.5037339,271.3024 90.4731835,271.681164 90.4792936,272.056873 C90.506789,274.436364 91.9243303,276.403491 93.5404495,277.729164 C89.5994404,278.737164 83.6879266,280.24 83.7520826,285.579345 C83.7551376,285.713745 83.7581927,285.842036 83.7673578,285.9856 C83.8926147,287.888582 84.9038349,289.577745 86.5474495,290.601018 C88.4018624,291.755636 93.3265963,294.831564 132.351752,278.807418 C132.351752,278.807418 132.547275,278.731055 132.742798,278.642473 C131.728523,279.6688 130.570661,280.695127 129.263101,281.587055 L128.710138,281.9536 L128.264101,282.466764 C124.818009,286.492655 118.484899,288.151273 118.417688,288.1696 L118.857615,288.087127 C103.066083,290.616291 97.7625229,297.641745 96.0028165,301.6096 C94.4416881,305.152873 94.505844,308.778618 96.1738991,311.326109 C97.8755596,313.946909 98.2085596,314.154618 116.132514,310.932073 C115.280156,313.204655 114.415578,316.766255 112.875835,319.487855 C111.745468,320.505018 99.0761927,331.889309 98.569055,332.344436 C81.7449174,341.902109 71.6632661,372.881309 70.5512294,376.4368 L70.392367,376.959127 L70.3434862,377.484509 C70.3098807,377.939636 70.2946055,378.370327 70.3037706,378.776582 C70.3495963,383.080436 72.595055,385.160582 74.0064862,386.049455 C79.1634037,389.265891 86.7215872,385.426327 89.7369174,383.636364 L90.8642294,382.961309 L93.1585688,378.862109 C95.700367,374.561309 103.044697,373.144 105.818679,372.939345 C113.770963,373.895418 121.729358,366.384291 123.321037,364.765382 L123.736523,364.356073 L124.032862,363.852073 C124.763018,362.633309 125.780349,362.468364 126.024752,362.450036 C137.322312,363.9376 145.567881,351.6736 148.467119,346.5664 C151.091404,345.876073 153.291037,346.490036 155.359303,350.760291 C156.761569,353.637673 157.647532,362.456145 157.83389,367.819927 C157.83389,367.822982 157.836945,370.474327 157.836945,370.483491 C157.83389,370.462109 157.338972,386.883345 157.338972,386.883345 L156.856275,402.690618 C156.856275,402.690618 157.265651,402.137745 157.308422,402.082764 C157.311477,402.110255 157.283982,402.592873 157.283982,402.592873 C157.280927,402.672291 157.119009,411.084509 157.119009,411.084509 C157.002917,418.122182 156.517165,423.886109 156.19944,426.329745 C154.956037,435.713309 153.242156,436.797673 152.597541,437.203927 C152.026248,437.546036 150.061853,438.337164 148.555716,438.7312 C146.20333,439.345164 145.357083,439.84 142.54033,441.037382 C133.616541,444.834182 131.120569,451.285382 128.740688,457.113455 C127.53089,460.073309 126.046138,462.489455 124.640817,463.378327 C120.024642,466.307636 120.024642,466.307636 118.258826,466.594764 L114.470569,467.321745 C105.937826,469.203345 101.648541,477.600291 101.190284,478.544145 L97.765578,485.606255 L243.11855,485.542109 L242.376174,479.167273 C241.646018,472.358691 238.609303,468.012073 224.055064,463.182836 C217.850266,461.121018 216.570202,459.627345 214.45611,457.128727 C211.782945,453.994764 208.465165,451.288436 197.845826,445.884945 C193.776505,443.807855 190.113505,434.974109 187.819165,423.751709 C186.517716,417.364655 187.305917,414.716364 187.315083,414.636945 L187.327303,414.383418 L186.560486,392.464 C186.566596,392.607564 186.45967,374.827055 186.45967,374.827055 C186.45967,374.897309 186.661303,357.443636 186.749899,350.360145 C191.839606,353.597964 197.839716,354.034764 198.621807,354.074473 C198.661523,354.074473 217.239257,354.838109 217.239257,354.838109 L217.560037,354.807564 C221.378844,354.468509 232.596972,361.069382 240.665349,367.453382 L240.958633,367.688582 L241.279413,367.871855 C247.056505,371.173818 254.281688,374.475782 258.995624,370.703418 C262.078165,368.241455 262.191202,364.154473 261.338844,361.411491 L261.516037,362.162909 C256.814321,328.541527 237.42089,323.028073 234.265028,322.349964 C233.168266,322.050618 232.45644,321.751273 232.034844,321.5344 C232.208982,321.286982 232.416725,321.033455 232.612248,320.847127 L232.297578,321.115927 C238.12355,316.586036 240.524817,312.037818 239.440275,307.611782 C237.811936,301.001745 229.355569,299.147636 227.669183,298.842182 L226.887092,298.695564 L226.105,298.805527 C217.896092,299.981527 208.715679,294.550545 207.692239,293.933527 C198.850936,287.173818 196.471055,281.916945 196.43745,278.954036 C196.428284,278.1232 196.599367,277.472582 196.871266,277.017455 L196.736844,277.203782 L197.338688,276.357673 C197.338688,276.357673 197.412009,276.04 197.48533,275.725382 C200.363183,275.752873 207.884706,279.036509 214.217817,283.144873 L213.658743,282.711127 C220.853376,289.0096 228.805661,286.116945 232.010404,283.706909 L233.250752,282.775273 C233.250752,282.775273 233.635688,281.559564 233.748725,281.208291 C234.234477,280.145309 237.176486,277.240436 239.919917,275.096145 C243.894532,272.066036 244.985183,269.103127 244.957688,266.7328 C244.948523,265.966109 244.814101,265.2544 244.633853,264.628218 C242.547257,257.648582 230.476771,255.146909 220.224037,254.288582 C218.641523,253.335564 213.056899,249.978618 213.056899,249.978618 C204.148385,244.730909 198.982303,241.4656 195.884486,235.164073 C202.138165,235.735273 207.954972,236.2912 211.336908,236.657745 C215.012128,238.233891 222.283138,237.067055 224.262807,236.129309 C227.119275,234.7792 228.09689,232.341673 228.07245,230.3776 C228.07245,230.255418 228.07245,230.133236 228.057174,230.014109 C227.702789,225.264291 221.727119,217.716509 211.352183,213.0736 C202.089284,208.925527 195.068789,200.039855 194.436394,197.8528 C193.883431,195.962036 193.681798,193.900218 193.660413,191.942255 C193.639028,189.886545 193.819275,187.992727 194.017853,186.505164 C198.206321,186.664 202.758339,191.817018 202.80722,191.881164 L204.438615,193.826909 L206.986523,193.631418 C208.636248,193.497018 211.645468,194.6944 213.160771,195.552727 L215.045734,196.603491 L217.114,195.940655 C219.466385,195.170909 227.378954,196.325527 231.640743,196.948655 C239.10422,198.039127 241.850706,199.410618 244.215312,195.192291 L244.835486,194.220945 L245.113495,192.9136 C246.479101,172.304582 231.283303,164.729309 230.647853,164.414691 L229.031734,163.629673 C229.031734,163.629673 228.784275,163.690764 228.659018,163.718255 C227.879982,162.878255 226.774055,161.244073 226.040844,159.784 C222.304523,153.076218 215.219872,151.875782 209.998798,152.275927 C208.208541,150.825018 205.914202,150.003345 203.488495,149.700945 C202.859156,149.010618 202.645303,148.781527 202.074009,148.155345 C201.951807,147.400873 201.799055,146.707491 201.582147,146.084364 C202.428394,146.203491 203.265477,146.319564 204.11478,146.438691 C227.394229,149.700945 230.351514,149.780364 232.911642,147.211491 C234.381119,145.714764 235.160156,143.824 235.138771,141.838545 C235.129606,141.340655 235.07767,140.827491 234.964633,140.317382 C233.168266,132.054836 214.489716,123.419636 199.141165,117.631273 C187.978028,113.376291 185.069624,108.910545 184.489165,107.8048 C184.440284,107.389382 184.018688,106.778473 184.018688,106.424145 C184.003413,105.440582 184.385294,104.979345 184.703018,104.701382 C185.894486,103.684218 188.860936,104.001891 191.778505,104.933527 L192.334523,105.107636 L192.918037,105.159564 C202.526156,105.886545 206.974303,100.877091 208.080229,97.8042182 L208.672908,96.1730909 L208.10467,94.5266909 C205.984468,88.4084364 201.194156,84.2114909 196.843771,82.0763636 C197.338688,81.4196364 200.063789,80.3291636 199.849936,75.6709818 C199.758284,73.6122182 197.271477,68.3248 189.78356,63.2023273 C195.297917,61.3757091 189.914927,51.7233455 183.334358,46.5642182 C183.334358,46.5642182 181.574651,45.2232727 181.324138,45.0461091 C185.204046,43.9220364 187.425064,39.4104727 187.913872,36.4414545 C187.987193,35.9924364 188.017743,35.5464727 188.008578,35.1096727 C187.987193,32.2017455 186.245817,29.7489455 183.615422,29.1472 C178.864826,28.0597818 177.276202,26.8776727 176.824055,26.4561455 C178.039963,26.2912 176.842385,19.6964364 176.035853,18.4807273 C176.112229,17.8392727 176.634642,16.3272727 176.628532,15.6644364 C176.597982,13.5842909 176.332193,12.2555636 174.881046,10.7069091 C173.549046,9.30181818 171.355523,9.20101818 169.886046,9.20101818" id="Fill-5" fill="#80D9FF" sketch:type="MSShapeGroup"></path>
                <path d="M181.877101,347.265891 L181.553266,374.784291 L181.654083,392.5648 L182.420899,414.224582 C182.420899,414.224582 181.556321,417.492945 183.013578,424.6528 C184.929092,434.057745 188.607367,446.614982 195.618697,450.182691 C215.039624,460.058036 207.42645,462.761309 222.500046,467.764655 C237.952468,472.893236 237.06956,476.567855 237.573642,480.642618 L105.574275,480.642618 C105.574275,480.642618 109.075358,473.464436 115.533725,472.031855 C121.989037,470.611491 120.009367,472.068509 127.277321,467.446982 C133.201055,463.683782 132.165394,450.711127 144.468064,445.478691 C149.478339,443.352727 152.915266,442.744873 155.221826,441.281745 C156.87155,440.237091 159.526385,438.572364 161.069183,426.897891 C161.585486,423.015564 162.004028,409.202909 162.19344,402.736436 L162.954147,385.988364 L162.251486,386.950545 L162.755569,370.401018 L162.746404,367.584727 C162.746404,367.584727 162.263706,353.652945 159.786064,348.542691 C157.302312,343.432436 152.884716,339.113309 145.164615,342.302255 C145.164615,342.302255 136.54633,359.728436 125.90255,357.455855 C125.90255,357.455855 122.105128,357.449745 119.826064,361.240436 C119.826064,361.240436 111.736303,369.463273 105.653706,367.942109 C105.653706,367.942109 93.4243578,368.666036 88.9273303,376.3024 C88.4935138,377.035491 87.2226147,379.338618 87.2226147,379.338618 C87.2226147,379.338618 74.4861284,386.938327 75.2468349,377.826618 C75.2468349,377.826618 85.6156606,344.529018 101.584385,336.171782 L116.786294,322.490473 C116.786294,322.490473 125.282376,305.287273 119.957431,304.517527 L100.289046,308.567855 C100.289046,308.567855 101.031422,296.893382 120.030752,293.851055 C120.030752,293.851055 127.439239,290.906473 131.994312,285.585455 C131.994312,285.585455 143.401853,277.997964 139.601376,271.913309 C139.601376,271.913309 135.803954,269.637673 130.485119,274.185891 C130.485119,274.185891 89.0373119,291.205818 88.6707064,285.585455 C88.4629633,282.369018 100.838954,282.543127 102.360367,278.737164 C102.360367,278.737164 102.360367,270.3952 97.0384771,274.192 C97.0384771,274.192 92.4742385,271.149673 98.5507248,269.631564 C98.5507248,269.631564 105.397083,266.583127 106.918495,263.546909 C106.918495,263.546909 111.476624,258.995636 115.286266,260.507636 C115.286266,260.507636 123.644872,260.510691 124.396413,255.9472 L136.55855,255.9472 C136.55855,255.9472 141.076963,242.467491 138.031083,237.904 L131.948486,236.385891 C131.948486,236.385891 128.148009,231.831564 122.832229,236.385891 L104.587495,237.907055 C104.587495,237.907055 103.069138,229.5376 127.393413,223.465164 C127.393413,223.465164 136.512725,220.425891 138.794844,212.826182 C138.794844,212.826182 153.993697,197.626764 148.671807,193.066327 C148.671807,193.066327 147.917211,185.469673 134.230606,190.778473 C134.230606,190.778473 98.501844,199.150982 93.9528807,198.387345 C93.9528807,198.387345 85.5881651,188.502836 103.069138,180.909236 C103.069138,180.909236 117.507284,174.830691 121.310817,167.224873 C121.310817,167.224873 148.766514,154.059782 151.809339,154.059782 C151.809339,154.059782 161.686303,148.744873 147.245101,143.423855 C147.245101,143.423855 141.156394,135.060509 132.803899,143.423855 C132.803899,143.423855 113.034697,156.341527 106.955156,153.2992 C106.955156,153.2992 103.921495,150.262982 109.997982,144.184436 C109.997982,144.184436 116.838229,126.697164 138.119679,123.660945 C138.119679,123.660945 162.621147,116.250618 157.916376,97.4285091 C157.916376,97.4285091 152.279817,94.1082182 137.869165,102.740364 C137.869165,102.740364 121.726303,97.4010182 140.026028,89.2576 L145.503725,81.832 C145.503725,81.832 139.919101,85.7815273 139.085073,81.6334545 C138.669587,79.5594182 138.51378,76.6178909 144.287817,73.768 C151.723798,70.1025455 149.970202,66.7608727 158.771789,66.3637818 C158.771789,66.3637818 159.966312,64.6532364 159.205606,62.7349818 C150.740073,61.7269818 146.701303,51.0635636 161.503,44.5909818 L163.009138,38.3413818 L156.614927,38.9064727 C156.614927,38.9064727 151.259431,29.2571636 161.52744,29.4526545 C161.52744,29.4526545 166.281092,24.7089455 167.930817,17.824 C167.930817,17.824 165.306532,13.7492364 169.864661,13.7492364 C169.864661,13.7492364 172.944147,12.3960727 171.428844,19.2321455 C171.428844,19.2321455 173.267982,23.1480727 173.267982,26.9387636 C173.267982,26.9387636 171.379963,31.3037091 182.518661,33.8573091 C183.704018,34.1291636 183.746789,42.0679273 176.145835,41.3042909 C176.145835,41.3042909 173.659028,46.2770909 180.84144,51.9402182 C180.84144,51.9402182 192.713349,62.9640727 181.944312,63.5627636 C181.944312,63.5627636 198.511826,74.1223273 193.749009,78.8813091 C191.677688,80.9553455 185.259037,78.0565818 184.660248,79.2356364 C183.792615,80.9614545 184.131725,81.8228364 186.398569,82.7666909 C188.298807,83.5639273 200.195156,86.6032 203.46711,96.0539636 C203.46711,96.0539636 201.741009,100.825164 193.293807,100.1776 C193.293807,100.1776 177.340358,94.3098182 179.613312,108.751709 C179.613312,108.751709 181.449394,116.064291 197.408954,122.145891 C197.408954,122.145891 236.259972,136.798545 229.425835,143.671273 C227.598917,145.507055 195.132945,139.620945 189.044239,139.620945 L188.286587,144.184436 C188.286587,144.184436 197.408954,141.899636 197.408954,150.262982 L201.13,154.301091 C201.13,154.301091 207.203431,154.301091 207.970248,157.343418 C207.970248,157.343418 217.844156,155.064727 221.650743,161.909964 C221.650743,161.909964 225.45122,169.503564 228.481826,168.749091 C228.481826,168.749091 241.196927,174.986473 240.039064,192.547055 C239.241697,193.842182 221.494936,189.263418 215.589532,191.2 C215.589532,191.2 210.567037,188.334836 206.589367,188.661673 C206.589367,188.661673 198.068844,178.334255 189.728569,182.421236 C189.728569,182.421236 187.541156,191.630691 189.728569,199.147927 C190.920037,203.256291 199.333633,212.997236 209.354183,217.478255 C218.904257,221.751564 222.998018,228.135564 223.159936,230.313455 C223.382954,233.254982 214.951028,232.308073 213.652633,232.011782 C212.354239,231.715491 188.967862,229.543709 188.967862,229.543709 C188.967862,229.543709 189.059514,231.700218 190.309028,234.974691 C194.726624,246.581964 203.830661,249.7312 218.656798,258.995636 C218.656798,258.995636 249.827431,261.271273 236.904587,271.149673 C236.904587,271.149673 229.819936,276.666182 229.062284,279.705455 C229.062284,279.705455 222.991908,284.275055 216.897092,278.947927 C216.897092,278.947927 194.332523,264.307491 192.81111,274.198109 C192.81111,274.198109 185.876156,283.456436 204.878541,297.886109 C204.878541,297.886109 216.157771,305.110109 226.798495,303.598109 C226.798495,303.598109 242.959688,306.530473 229.276138,317.169455 C229.276138,317.169455 221.687404,324.014691 233.08578,327.0448 C233.08578,327.0448 252.088165,330.099345 256.655459,362.767709 C256.655459,362.767709 259.683009,372.652218 243.717339,363.531345 C243.717339,363.531345 225.481771,349.089455 217.12011,349.850036 L198.875376,349.089455 C198.875376,349.089455 191.524936,348.735127 187.336468,344.568727 C187.336468,344.568727 182.365908,340.668073 181.877101,347.265891" id="Fill-6" fill="#FFFFFF" sketch:type="MSShapeGroup"></path>
            </g>
        </g>
    </g>
</svg>